<svg width="43" height="43" viewBox="0 0 43 43" fill="none" xmlns="http://www.w3.org/2000/svg">
<rect width="43" height="43" rx="8" fill="#1F1F1F"/>
<path d="M20.4639 13.2108C20.4639 12.6386 20.9278 12.1747 21.5 12.1747C22.0723 12.1747 22.5362 12.6386 22.5362 13.2108V29.7891C22.5362 30.3614 22.0723 30.8253 21.5 30.8253C20.9278 30.8253 20.4639 30.3614 20.4639 29.7891V13.2108Z" fill="#A2EF1B"/>
<path d="M12.1748 21.4999C12.1748 20.9276 12.6387 20.4637 13.2109 20.4637H29.7893C30.3615 20.4637 30.8254 20.9276 30.8254 21.4999C30.8254 22.0721 30.3615 22.536 29.7893 22.536H13.211C12.6387 22.536 12.1748 22.0721 12.1748 21.4999Z" fill="#A2EF1B"/>
</svg>
