<svg width="1920" height="830" viewBox="0 0 1920 830" fill="none" xmlns="http://www.w3.org/2000/svg">
<rect width="1920" height="830" fill="white"/>
<g opacity="0.07" clip-path="url(#clip0_222_728)">
<line x1="0.5" y1="2.18557e-08" x2="0.499964" y2="830" stroke="#131316"/>
<line x1="53.8335" y1="2.18557e-08" x2="53.8335" y2="830" stroke="#131316"/>
<line x1="107.167" y1="2.18557e-08" x2="107.166" y2="830" stroke="#131316"/>
<line x1="160.5" y1="2.18557e-08" x2="160.5" y2="830" stroke="#131316"/>
<line x1="213.833" y1="2.18557e-08" x2="213.833" y2="830" stroke="#131316"/>
<line x1="267.167" y1="2.18557e-08" x2="267.166" y2="830" stroke="#131316"/>
<line x1="320.5" y1="2.18557e-08" x2="320.5" y2="830" stroke="#131316"/>
<line x1="373.833" y1="2.18557e-08" x2="373.833" y2="830" stroke="#131316"/>
<line x1="427.167" y1="2.18557e-08" x2="427.167" y2="830" stroke="#131316"/>
<line x1="480.5" y1="2.18557e-08" x2="480.5" y2="830" stroke="#131316"/>
<line x1="533.833" y1="2.18557e-08" x2="533.833" y2="830" stroke="#131316"/>
<line x1="587.167" y1="2.18557e-08" x2="587.167" y2="830" stroke="#131316"/>
<line x1="640.5" y1="2.18557e-08" x2="640.5" y2="830" stroke="#131316"/>
<line x1="693.833" y1="2.18557e-08" x2="693.833" y2="830" stroke="#131316"/>
<line x1="747.167" y1="2.18557e-08" x2="747.166" y2="830" stroke="#131316"/>
<line x1="800.5" y1="2.18557e-08" x2="800.5" y2="830" stroke="#131316"/>
<line x1="853.833" y1="2.18557e-08" x2="853.833" y2="830" stroke="#131316"/>
<line x1="907.167" y1="2.18557e-08" x2="907.166" y2="830" stroke="#131316"/>
<line x1="960.5" y1="2.18557e-08" x2="960.5" y2="830" stroke="#131316"/>
<line x1="1013.83" y1="2.18557e-08" x2="1013.83" y2="830" stroke="#131316"/>
<line x1="1067.17" y1="2.18557e-08" x2="1067.17" y2="830" stroke="#131316"/>
<line x1="1120.5" y1="2.18557e-08" x2="1120.5" y2="830" stroke="#131316"/>
<line x1="1173.83" y1="2.18557e-08" x2="1173.83" y2="830" stroke="#131316"/>
<line x1="1227.17" y1="2.18557e-08" x2="1227.17" y2="830" stroke="#131316"/>
<line x1="1280.5" y1="2.18557e-08" x2="1280.5" y2="830" stroke="#131316"/>
<line x1="1333.83" y1="2.18557e-08" x2="1333.83" y2="830" stroke="#131316"/>
<line x1="1387.17" y1="2.18557e-08" x2="1387.17" y2="830" stroke="#131316"/>
<line x1="1440.5" y1="2.18557e-08" x2="1440.5" y2="830" stroke="#131316"/>
<line x1="1493.83" y1="2.18557e-08" x2="1493.83" y2="830" stroke="#131316"/>
<line x1="1547.17" y1="2.18557e-08" x2="1547.17" y2="830" stroke="#131316"/>
<line x1="1600.5" y1="2.18557e-08" x2="1600.5" y2="830" stroke="#131316"/>
<line x1="1653.83" y1="2.18557e-08" x2="1653.83" y2="830" stroke="#131316"/>
<line x1="1707.17" y1="2.18557e-08" x2="1707.17" y2="830" stroke="#131316"/>
<line x1="1760.5" y1="2.18557e-08" x2="1760.5" y2="830" stroke="#131316"/>
<line x1="1813.83" y1="2.18557e-08" x2="1813.83" y2="830" stroke="#131316"/>
<line x1="1867.17" y1="2.18557e-08" x2="1867.17" y2="830" stroke="#131316"/>
<line x1="1920" y1="0.500122" x2="0.00012202" y2="0.499975" stroke="#131316"/>
<line x1="1920" y1="41.5637" x2="0.00012202" y2="41.5636" stroke="#131316"/>
<line x1="1920" y1="82.6274" x2="0.00012202" y2="82.6273" stroke="#131316"/>
<line x1="1920" y1="123.691" x2="0.00012202" y2="123.691" stroke="#131316"/>
<line x1="1920" y1="164.755" x2="0.00012202" y2="164.755" stroke="#131316"/>
<line x1="1920" y1="205.819" x2="0.00012202" y2="205.818" stroke="#131316"/>
<line x1="1920" y1="246.882" x2="0.00012202" y2="246.882" stroke="#131316"/>
<line x1="1920" y1="287.946" x2="0.00012202" y2="287.946" stroke="#131316"/>
<line x1="1920" y1="329.01" x2="0.00012202" y2="329.009" stroke="#131316"/>
<line x1="1920" y1="370.073" x2="0.00012202" y2="370.073" stroke="#131316"/>
<line x1="1920" y1="411.137" x2="0.00012202" y2="411.137" stroke="#131316"/>
<line x1="1920" y1="452.201" x2="0.00012202" y2="452.201" stroke="#131316"/>
<line x1="1920" y1="493.264" x2="0.00012202" y2="493.264" stroke="#131316"/>
<line x1="1920" y1="534.328" x2="0.00012202" y2="534.328" stroke="#131316"/>
<line x1="1920" y1="575.392" x2="0.00012202" y2="575.392" stroke="#131316"/>
<line x1="1920" y1="616.456" x2="0.00012202" y2="616.455" stroke="#131316"/>
<line x1="1920" y1="657.519" x2="0.00012202" y2="657.519" stroke="#131316"/>
<line x1="1920" y1="698.583" x2="0.00012202" y2="698.583" stroke="#131316"/>
<line x1="1920" y1="739.647" x2="0.00012202" y2="739.647" stroke="#131316"/>
<line x1="1920" y1="780.71" x2="0.00012202" y2="780.71" stroke="#131316"/>
<line x1="1920" y1="821.774" x2="0.00012202" y2="821.774" stroke="#131316"/>
<rect x="160" y="41.577" width="53" height="40.807" fill="#131316"/>
<rect x="320" y="205.575" width="53" height="40.807" fill="#131316"/>
<rect x="480" y="287.959" width="53" height="40.807" fill="#131316"/>
<rect x="1707" y="82.384" width="53" height="40.807" fill="#131316"/>
<rect x="1547" y="163.998" width="53" height="40.807" fill="#131316"/>
<path d="M1653 287.959H1706V328.766H1653V287.959Z" fill="#131316"/>
<rect x="1440" y="369.573" width="53" height="40.807" fill="#131316"/>
<rect x="1600" y="451.957" width="53" height="40.807" fill="#131316"/>
<rect x="1760" y="534.341" width="53" height="40.807" fill="#131316"/>
<rect x="1547" y="739.146" width="53" height="40.807" fill="#131316"/>
<rect x="160" y="451.957" width="53" height="40.807" fill="#131316"/>
<rect x="320" y="534.341" width="53" height="40.807" fill="#131316"/>
<rect x="107" y="656.762" width="53" height="40.807" fill="#131316"/>
<rect y="780.724" width="53" height="40.807" fill="#131316"/>
<rect x="480" y="451.957" width="53" height="40.807" fill="#131316"/>
</g>
<defs>
<clipPath id="clip0_222_728">
<rect width="1920" height="830" fill="white"/>
</clipPath>
</defs>
</svg>
