<svg width="1920" height="764" viewBox="0 0 1920 764" fill="none" xmlns="http://www.w3.org/2000/svg">
<g opacity="0.5">
<mask id="mask0_254_1433" style="mask-type:alpha" maskUnits="userSpaceOnUse" x="798" y="0" width="1122" height="734">
<rect width="532.713" height="812.2" transform="matrix(0.779295 -0.626657 0.870203 0.492692 798.078 333.829)" fill="url(#paint0_linear_254_1433)"/>
</mask>
<g mask="url(#mask0_254_1433)">
<path d="M1411.05 209.208C1604.71 235.226 1733.96 350.447 1699.7 466.539C1696.11 478.715 1690.85 490.46 1684.11 501.645C1685.03 398.796 1563.32 304.066 1389.93 280.771C1216.54 257.477 1050.41 313.537 992.803 408.77C992.93 396.697 994.737 384.488 998.33 372.312C1032.59 256.22 1217.38 183.189 1411.05 209.208Z" fill="#480B85"/>
<g filter="url(#filter0_f_254_1433)">
<path d="M1408.7 217.159C1602.37 243.178 1733.96 350.447 1699.7 466.539C1696.11 478.715 1690.85 490.46 1684.11 501.645C1685.03 398.796 1565.67 296.114 1392.28 272.82C1218.89 249.525 1050.41 313.537 992.803 408.77C992.93 396.697 994.737 384.488 998.33 372.312C1032.59 256.22 1215.04 191.141 1408.7 217.159Z" fill="#480B85"/>
</g>
<g filter="url(#filter1_f_254_1433)">
<path d="M1407.53 221.135C1601.19 247.154 1737.62 359.206 1703.36 475.298C1699.77 487.474 1694.51 499.219 1687.77 510.404C1688.69 407.555 1566.84 292.139 1393.45 268.844C1220.06 245.55 1048.09 324.075 990.475 419.307C990.602 407.234 992.409 395.025 996.002 382.85C1030.26 266.758 1213.86 195.117 1407.53 221.135Z" fill="#480B85"/>
</g>
<g filter="url(#filter2_f_254_1433)">
<path d="M1407.53 221.135C1601.19 247.154 1737.62 359.206 1703.36 475.298C1699.77 487.474 1694.51 499.219 1687.77 510.404C1688.69 407.555 1566.84 292.139 1393.45 268.844C1220.06 245.55 1048.09 324.075 990.475 419.307C990.602 407.234 992.409 395.025 996.002 382.85C1030.26 266.758 1213.86 195.117 1407.53 221.135Z" fill="#480B85"/>
</g>
<g filter="url(#filter3_f_254_1433)">
<path d="M1407.53 221.135C1601.19 247.154 1737.62 359.206 1703.36 475.298C1699.77 487.474 1694.51 499.219 1687.77 510.404C1688.69 407.555 1566.84 292.139 1393.45 268.844C1220.06 245.55 1048.09 324.075 990.475 419.307C990.602 407.234 992.409 395.025 996.002 382.85C1030.26 266.758 1213.86 195.117 1407.53 221.135Z" fill="#480B85"/>
</g>
<g filter="url(#filter4_f_254_1433)">
<path d="M1413.47 244.667C1607.13 270.685 1737.62 359.206 1703.36 475.298C1699.77 487.474 1694.51 499.219 1687.77 510.404C1688.69 407.555 1575.55 279.876 1397.26 255.923C1173.88 225.912 1048.09 324.075 990.475 419.307C990.602 407.234 992.409 395.025 996.002 382.85C1030.26 266.758 1219.8 218.648 1413.47 244.667Z" fill="#480B85"/>
</g>
<g filter="url(#filter5_f_254_1433)">
<path d="M1413.47 244.666C1607.13 270.685 1769.21 348.725 1734.95 464.817C1731.36 476.992 1676.59 511.536 1669.85 522.721C1670.77 419.872 1575.55 279.875 1397.26 255.923C1173.88 225.912 1064.01 338.356 1006.4 433.589C1023.9 435.939 958.879 406.796 962.471 394.62C996.728 278.528 1219.8 218.648 1413.47 244.666Z" fill="#480B85"/>
</g>
<g filter="url(#filter6_f_254_1433)">
<path d="M1413.47 244.666C1607.13 270.685 1769.21 348.725 1734.95 464.817C1731.36 476.992 1676.59 511.536 1669.85 522.721C1670.77 419.872 1575.55 279.875 1397.26 255.923C1173.88 225.912 1064.01 338.356 1006.4 433.589C1023.9 435.939 958.879 406.796 962.471 394.62C996.728 278.528 1219.8 218.648 1413.47 244.666Z" fill="#480B85"/>
</g>
<g filter="url(#filter7_f_254_1433)">
<path d="M1413.47 244.666C1607.13 270.685 1769.21 348.725 1734.95 464.817C1731.36 476.992 1676.59 511.536 1669.85 522.721C1670.77 419.872 1575.55 279.875 1397.26 255.923C1173.88 225.912 1064.01 338.356 1006.4 433.589C1023.9 435.939 958.879 406.796 962.471 394.62C996.728 278.528 1219.8 218.648 1413.47 244.666Z" fill="#480B85"/>
</g>
</g>
<mask id="mask1_254_1433" style="mask-type:alpha" maskUnits="userSpaceOnUse" x="-1" y="75" width="1123" height="689">
<rect width="496.698" height="857.515" transform="matrix(-0.650139 0.759816 -0.931791 -0.362994 1121.95 386.602)" fill="url(#paint1_linear_254_1433)"/>
</mask>
<g mask="url(#mask1_254_1433)">
<path d="M417.936 524.898C261.361 463.901 199.873 337.943 280.61 243.585C289.078 233.689 298.804 224.498 309.563 216.087C263.569 305.506 327.522 412.122 467.706 466.732C607.889 521.343 776.643 505.383 868.475 433.82C863.059 444.313 856.125 454.591 847.658 464.488C766.92 558.845 574.511 585.894 417.936 524.898Z" fill="#7326F1"/>
<g filter="url(#filter8_f_254_1433)">
<path d="M423.466 518.435C266.89 457.439 199.873 337.943 280.61 243.585C289.078 233.689 298.804 224.498 309.563 216.087C263.569 305.506 321.992 418.584 462.176 473.195C602.359 527.806 776.643 505.383 868.475 433.82C863.059 444.313 856.125 454.591 847.658 464.488C766.92 558.845 580.041 579.431 423.466 518.435Z" fill="#7326F1"/>
</g>
<g filter="url(#filter9_f_254_1433)">
<path d="M426.23 515.204C269.655 454.207 200.546 329.588 281.283 235.231C289.751 225.334 299.477 216.144 310.235 207.732C264.241 297.152 319.227 421.816 459.41 476.427C599.593 531.037 783.294 496.664 875.125 425.101C869.709 435.594 862.776 445.873 854.308 455.769C773.571 550.126 582.806 576.2 426.23 515.204Z" fill="#7326F1"/>
</g>
<g filter="url(#filter10_f_254_1433)">
<path d="M426.23 515.204C269.655 454.207 200.546 329.588 281.283 235.231C289.751 225.334 299.477 216.144 310.235 207.732C264.241 297.152 319.227 421.816 459.41 476.427C599.593 531.037 783.294 496.664 875.125 425.101C869.709 435.594 862.776 445.873 854.308 455.769C773.571 550.126 582.806 576.2 426.23 515.204Z" fill="#7326F1"/>
</g>
<g filter="url(#filter11_f_254_1433)">
<path d="M426.23 515.204C269.655 454.207 200.546 329.588 281.283 235.231C289.751 225.334 299.477 216.144 310.235 207.732C264.241 297.152 319.227 421.816 459.41 476.427C599.593 531.037 783.294 496.664 875.125 425.101C869.709 435.594 862.776 445.873 854.308 455.769C773.571 550.126 582.806 576.2 426.23 515.204Z" fill="#7326F1"/>
</g>
<g filter="url(#filter12_f_254_1433)">
<path d="M431.42 493.529C274.845 432.532 200.546 329.588 281.283 235.231C289.751 225.334 299.477 216.144 310.235 207.732C264.241 297.152 306.282 430.776 450.424 486.929C631.028 557.286 783.294 496.664 875.125 425.101C869.709 435.594 862.776 445.873 854.308 455.769C773.571 550.126 587.996 554.525 431.42 493.529Z" fill="#7326F1"/>
</g>
<g filter="url(#filter13_f_254_1433)">
<path d="M431.42 493.528C274.845 432.532 168.536 332.467 249.273 238.11C257.741 228.214 320.437 208.96 331.196 200.549C285.202 289.968 306.282 430.776 450.424 486.929C631.028 557.286 775.752 481.07 867.584 409.507C853.438 403.996 897.037 442.254 888.569 452.151C807.832 546.508 587.996 554.525 431.42 493.528Z" fill="#7326F1"/>
</g>
<g filter="url(#filter14_f_254_1433)">
<path d="M431.42 493.528C274.845 432.532 168.536 332.467 249.273 238.11C257.741 228.214 320.437 208.96 331.196 200.549C285.202 289.968 306.282 430.776 450.424 486.929C631.028 557.286 775.752 481.07 867.584 409.507C853.438 403.996 897.037 442.254 888.569 452.151C807.832 546.508 587.996 554.525 431.42 493.528Z" fill="#7326F1"/>
</g>
<g filter="url(#filter15_f_254_1433)">
<path d="M431.42 493.528C274.845 432.532 168.536 332.467 249.273 238.11C257.741 228.214 320.437 208.96 331.196 200.549C285.202 289.968 306.282 430.776 450.424 486.929C631.028 557.286 775.752 481.07 867.584 409.507C853.438 403.996 897.037 442.254 888.569 452.151C807.832 546.508 587.996 554.525 431.42 493.528Z" fill="#7326F1"/>
</g>
</g>
</g>
<defs>
<filter id="filter0_f_254_1433" x="980.803" y="199.463" width="736.325" height="314.182" filterUnits="userSpaceOnUse" color-interpolation-filters="sRGB">
<feFlood flood-opacity="0" result="BackgroundImageFix"/>
<feBlend mode="normal" in="SourceGraphic" in2="BackgroundImageFix" result="shape"/>
<feGaussianBlur stdDeviation="6" result="effect1_foregroundBlur_254_1433"/>
</filter>
<filter id="filter1_f_254_1433" x="954.475" y="179.803" width="790.165" height="366.601" filterUnits="userSpaceOnUse" color-interpolation-filters="sRGB">
<feFlood flood-opacity="0" result="BackgroundImageFix"/>
<feBlend mode="normal" in="SourceGraphic" in2="BackgroundImageFix" result="shape"/>
<feGaussianBlur stdDeviation="18" result="effect1_foregroundBlur_254_1433"/>
</filter>
<filter id="filter2_f_254_1433" x="938.475" y="163.803" width="822.165" height="398.601" filterUnits="userSpaceOnUse" color-interpolation-filters="sRGB">
<feFlood flood-opacity="0" result="BackgroundImageFix"/>
<feBlend mode="normal" in="SourceGraphic" in2="BackgroundImageFix" result="shape"/>
<feGaussianBlur stdDeviation="26" result="effect1_foregroundBlur_254_1433"/>
</filter>
<filter id="filter3_f_254_1433" x="938.475" y="163.803" width="822.165" height="398.601" filterUnits="userSpaceOnUse" color-interpolation-filters="sRGB">
<feFlood flood-opacity="0" result="BackgroundImageFix"/>
<feBlend mode="normal" in="SourceGraphic" in2="BackgroundImageFix" result="shape"/>
<feGaussianBlur stdDeviation="26" result="effect1_foregroundBlur_254_1433"/>
</filter>
<filter id="filter4_f_254_1433" x="866.475" y="113.784" width="966.35" height="520.62" filterUnits="userSpaceOnUse" color-interpolation-filters="sRGB">
<feFlood flood-opacity="0" result="BackgroundImageFix"/>
<feBlend mode="normal" in="SourceGraphic" in2="BackgroundImageFix" result="shape"/>
<feGaussianBlur stdDeviation="62" result="effect1_foregroundBlur_254_1433"/>
</filter>
<filter id="filter5_f_254_1433" x="886.328" y="162.648" width="929.222" height="436.073" filterUnits="userSpaceOnUse" color-interpolation-filters="sRGB">
<feFlood flood-opacity="0" result="BackgroundImageFix"/>
<feBlend mode="normal" in="SourceGraphic" in2="BackgroundImageFix" result="shape"/>
<feGaussianBlur stdDeviation="38" result="effect1_foregroundBlur_254_1433"/>
</filter>
<filter id="filter6_f_254_1433" x="798.328" y="74.6484" width="1105.22" height="612.073" filterUnits="userSpaceOnUse" color-interpolation-filters="sRGB">
<feFlood flood-opacity="0" result="BackgroundImageFix"/>
<feBlend mode="normal" in="SourceGraphic" in2="BackgroundImageFix" result="shape"/>
<feGaussianBlur stdDeviation="82" result="effect1_foregroundBlur_254_1433"/>
</filter>
<filter id="filter7_f_254_1433" x="718.328" y="-5.35156" width="1265.22" height="772.073" filterUnits="userSpaceOnUse" color-interpolation-filters="sRGB">
<feFlood flood-opacity="0" result="BackgroundImageFix"/>
<feBlend mode="normal" in="SourceGraphic" in2="BackgroundImageFix" result="shape"/>
<feGaussianBlur stdDeviation="122" result="effect1_foregroundBlur_254_1433"/>
</filter>
<filter id="filter8_f_254_1433" x="234.228" y="204.087" width="646.247" height="360.971" filterUnits="userSpaceOnUse" color-interpolation-filters="sRGB">
<feFlood flood-opacity="0" result="BackgroundImageFix"/>
<feBlend mode="normal" in="SourceGraphic" in2="BackgroundImageFix" result="shape"/>
<feGaussianBlur stdDeviation="6" result="effect1_foregroundBlur_254_1433"/>
</filter>
<filter id="filter9_f_254_1433" x="211.322" y="171.732" width="699.803" height="412.376" filterUnits="userSpaceOnUse" color-interpolation-filters="sRGB">
<feFlood flood-opacity="0" result="BackgroundImageFix"/>
<feBlend mode="normal" in="SourceGraphic" in2="BackgroundImageFix" result="shape"/>
<feGaussianBlur stdDeviation="18" result="effect1_foregroundBlur_254_1433"/>
</filter>
<filter id="filter10_f_254_1433" x="195.322" y="155.732" width="731.803" height="444.376" filterUnits="userSpaceOnUse" color-interpolation-filters="sRGB">
<feFlood flood-opacity="0" result="BackgroundImageFix"/>
<feBlend mode="normal" in="SourceGraphic" in2="BackgroundImageFix" result="shape"/>
<feGaussianBlur stdDeviation="26" result="effect1_foregroundBlur_254_1433"/>
</filter>
<filter id="filter11_f_254_1433" x="195.322" y="155.732" width="731.803" height="444.376" filterUnits="userSpaceOnUse" color-interpolation-filters="sRGB">
<feFlood flood-opacity="0" result="BackgroundImageFix"/>
<feBlend mode="normal" in="SourceGraphic" in2="BackgroundImageFix" result="shape"/>
<feGaussianBlur stdDeviation="26" result="effect1_foregroundBlur_254_1433"/>
</filter>
<filter id="filter12_f_254_1433" x="124.33" y="83.7324" width="874.795" height="574.254" filterUnits="userSpaceOnUse" color-interpolation-filters="sRGB">
<feFlood flood-opacity="0" result="BackgroundImageFix"/>
<feBlend mode="normal" in="SourceGraphic" in2="BackgroundImageFix" result="shape"/>
<feGaussianBlur stdDeviation="62" result="effect1_foregroundBlur_254_1433"/>
</filter>
<filter id="filter13_f_254_1433" x="145.566" y="124.548" width="820.104" height="484.03" filterUnits="userSpaceOnUse" color-interpolation-filters="sRGB">
<feFlood flood-opacity="0" result="BackgroundImageFix"/>
<feBlend mode="normal" in="SourceGraphic" in2="BackgroundImageFix" result="shape"/>
<feGaussianBlur stdDeviation="38" result="effect1_foregroundBlur_254_1433"/>
</filter>
<filter id="filter14_f_254_1433" x="57.5664" y="36.5483" width="996.104" height="660.03" filterUnits="userSpaceOnUse" color-interpolation-filters="sRGB">
<feFlood flood-opacity="0" result="BackgroundImageFix"/>
<feBlend mode="normal" in="SourceGraphic" in2="BackgroundImageFix" result="shape"/>
<feGaussianBlur stdDeviation="82" result="effect1_foregroundBlur_254_1433"/>
</filter>
<filter id="filter15_f_254_1433" x="-22.4336" y="-43.4517" width="1156.1" height="820.03" filterUnits="userSpaceOnUse" color-interpolation-filters="sRGB">
<feFlood flood-opacity="0" result="BackgroundImageFix"/>
<feBlend mode="normal" in="SourceGraphic" in2="BackgroundImageFix" result="shape"/>
<feGaussianBlur stdDeviation="122" result="effect1_foregroundBlur_254_1433"/>
</filter>
<linearGradient id="paint0_linear_254_1433" x1="266.357" y1="0" x2="266.357" y2="812.2" gradientUnits="userSpaceOnUse">
<stop stop-color="#C4C4C4" stop-opacity="0"/>
<stop offset="0.380208" stop-color="#C4C4C4"/>
<stop offset="0.578125" stop-color="#C4C4C4"/>
<stop offset="1" stop-color="#C4C4C4" stop-opacity="0"/>
</linearGradient>
<linearGradient id="paint1_linear_254_1433" x1="248.349" y1="0" x2="248.349" y2="857.515" gradientUnits="userSpaceOnUse">
<stop stop-color="#C4C4C4" stop-opacity="0"/>
<stop offset="0.380208" stop-color="#C4C4C4"/>
<stop offset="0.578125" stop-color="#C4C4C4"/>
<stop offset="1" stop-color="#C4C4C4" stop-opacity="0"/>
</linearGradient>
</defs>
</svg>
