<svg width="52" height="81" viewBox="0 0 52 81" fill="none" xmlns="http://www.w3.org/2000/svg">
<path d="M40.0937 3.71467C46.2996 8.22674 49.5429 13.5682 51.9102 20.9805C51.9812 22.9092 52.0028 24.84 51.9996 26.7702C51.9998 27.3559 51.9999 27.9417 52 28.5452C51.9995 30.4804 51.9933 32.4155 51.9871 34.3507C51.9857 35.6928 51.9846 37.0349 51.9838 38.377C51.9808 41.9089 51.973 45.4408 51.9643 48.9726C51.9562 52.5769 51.9527 56.1811 51.9487 59.7854C51.9402 66.8569 51.9268 73.9285 51.9102 81C50.2644 80.8784 48.6187 80.7539 46.9732 80.628C46.0568 80.559 45.1403 80.49 44.1961 80.4188C31.838 79.2401 20.196 71.7912 12.1155 62.2054C8.23399 57.0275 5.26269 51.8067 3.0685 45.6461C2.69226 44.6572 2.69226 44.6572 2.30843 43.6484C-0.550828 34.8197 -1.12565 23.0867 2.72385 14.5572C6.63948 7.77159 11.393 3.23192 18.6608 0.769581C25.8945 -0.660182 33.7225 -0.32295 40.0937 3.71467Z" fill="#A2EF1B"/>
</svg>
