<svg width="32" height="32" viewBox="0 0 32 32" fill="none" xmlns="http://www.w3.org/2000/svg">
<path d="M15.4658 8.9519C17.7493 8.89216 19.9735 9.40146 21.6928 10.9797C22.8104 12.0564 23.5191 13.5671 23.5954 15.1263C23.6323 17.4439 23.6323 17.4439 23.3174 18.4165C23.2965 18.4824 23.2965 18.4824 23.2752 18.5496C22.7448 20.162 21.5646 21.4115 20.0737 22.1831C18.7923 22.8218 17.451 23.029 16.0338 23.0302C15.983 23.0302 15.9322 23.0303 15.8799 23.0303C15.1456 23.0293 14.4462 23.0075 13.7335 22.8136C13.6885 22.8015 13.6435 22.7894 13.5971 22.7769C13.0211 22.6181 12.4705 22.4175 11.9365 22.1474C11.8765 22.1181 11.8165 22.0888 11.7547 22.0587C11.2753 21.8129 10.8742 21.5056 10.4723 21.1481C10.425 21.1063 10.3777 21.0646 10.329 21.0216C9.20731 19.9677 8.54046 18.3759 8.46383 16.8494C8.42668 14.5963 8.42668 14.5963 8.74183 13.6197C8.76323 13.5531 8.76323 13.5531 8.78506 13.4852C9.31413 11.908 10.4015 10.6629 11.8455 9.86351C12.9747 9.31931 14.2114 8.99029 15.4658 8.9519ZM14.854 9.74484C14.4327 10.2411 14.2805 10.846 14.1037 11.4586C13.8216 12.4305 13.3848 13.1934 12.4986 13.7354C12.1044 13.9391 11.6689 14.0538 11.2471 14.1871C10.5834 14.4055 10.0069 14.691 9.60705 15.2852C9.41254 15.6924 9.41191 16.1425 9.55297 16.5677C9.65796 16.8164 9.80062 16.9741 10.0064 17.1507C10.0531 17.1946 10.0997 17.2386 10.1478 17.2839C10.5652 17.5746 11.0316 17.7408 11.5135 17.8924C12.4981 18.2028 13.2354 18.6531 13.7682 19.5572C13.9361 19.8845 14.0348 20.2294 14.137 20.5818C14.4681 21.7638 14.4681 21.7638 15.3017 22.6013C15.7325 22.8008 16.1213 22.8334 16.5758 22.6903C17.1357 22.4433 17.4286 22.025 17.661 21.4726C17.7491 21.2165 17.8158 20.956 17.8848 20.6942C18.1689 19.6324 18.636 18.8511 19.5839 18.2616C19.9939 18.0396 20.4386 17.9179 20.8825 17.7818C21.5415 17.569 22.1133 17.2934 22.4628 16.6708C22.6344 16.3034 22.6438 15.9153 22.5445 15.5244C22.3413 15.0021 21.9665 14.6925 21.4705 14.4524C21.2313 14.3497 20.9893 14.2633 20.742 14.1828C19.6289 13.8189 18.7934 13.4008 18.2337 12.3072C18.0761 11.9514 17.9606 11.5858 17.8482 11.2138C17.6197 10.4597 17.3998 9.75137 16.6619 9.35577C15.9878 9.10302 15.3662 9.25138 14.854 9.74484Z" fill="white"/>
<path d="M17.6966 13.1049C18.4534 13.6374 19.0247 14.3546 19.1905 15.2848C19.287 16.3612 19.1976 17.2727 18.5249 18.1495C18.4957 18.1905 18.4664 18.2315 18.4363 18.2737C17.9703 18.8799 17.2185 19.2396 16.4807 19.3842C15.5927 19.4964 14.8018 19.2389 14.0788 18.732C13.4134 18.2034 13.0161 17.4506 12.8678 16.6172C12.8492 16.4211 12.8455 16.2271 12.847 16.0301C12.8473 15.9776 12.8476 15.9251 12.848 15.871C12.8563 15.4513 12.9124 15.0777 13.0674 14.6851C13.0893 14.6294 13.1112 14.5737 13.1337 14.5162C13.5023 13.6903 14.2001 13.0501 15.0391 12.7239C15.9638 12.4472 16.8901 12.5886 17.6966 13.1049ZM14.6648 14.9516C14.409 15.356 14.2939 15.737 14.332 16.2175C14.4725 16.7928 14.6995 17.1849 15.2016 17.5041C15.6428 17.7317 16.0983 17.7773 16.5733 17.6267C17.0693 17.4045 17.4392 17.058 17.6556 16.5548C17.8039 16.0796 17.7652 15.6713 17.5438 15.2272C17.2643 14.7519 16.9263 14.4653 16.3921 14.3133C15.7471 14.1751 15.0879 14.4582 14.6648 14.9516Z" fill="white"/>
<path d="M16.02 24.7826C16.0946 24.7832 16.0946 24.7832 16.1707 24.7838C16.5584 24.7948 16.8643 24.8634 17.193 25.0782C17.2548 25.1167 17.3165 25.1552 17.3802 25.1948C17.6542 25.4769 17.8055 25.7815 17.8253 26.1775C17.8043 26.5586 17.6807 26.8524 17.4129 27.1253C16.9744 27.4862 16.4476 27.652 15.8811 27.6289C15.3548 27.5633 14.8563 27.393 14.5121 26.9728C14.2937 26.6356 14.2238 26.2671 14.2869 25.8707C14.4029 25.481 14.6636 25.2326 14.9967 25.0116C15.3497 24.8294 15.6313 24.7772 16.02 24.7826Z" fill="white"/>
<path d="M17.2142 4.72584C17.5931 5.03433 17.7676 5.32668 17.8223 5.82018C17.803 6.23692 17.6145 6.56202 17.3149 6.84451C16.8008 7.24377 16.2296 7.27929 15.5969 7.22343C15.127 7.14347 14.7748 6.91906 14.4655 6.5572C14.2671 6.23962 14.2342 5.93482 14.2952 5.56878C14.4144 5.10659 14.6443 4.88279 15.0408 4.63996C15.7037 4.29554 16.5851 4.31201 17.2142 4.72584Z" fill="white"/>
<path d="M12.0035 24.0127C12.4761 24.3217 12.7582 24.7468 12.9352 25.2786C12.9815 25.7481 12.9701 26.1638 12.669 26.5444C12.3806 26.8418 12.0855 26.9024 11.679 26.9192C11.0959 26.8954 10.6829 26.7194 10.2814 26.2946C9.92811 25.8473 9.75807 25.4307 9.78141 24.8554C9.83406 24.4945 9.97586 24.2436 10.2314 23.9877C10.8326 23.6152 11.3939 23.716 12.0035 24.0127Z" fill="white"/>
<path d="M12.417 5.1395C12.6666 5.32104 12.8348 5.52829 12.9333 5.82421C13.0011 6.46078 12.891 6.92223 12.4934 7.42551C12.1716 7.77358 11.7366 8.05317 11.2562 8.10527C10.8448 8.11756 10.5435 8.06483 10.2046 7.82291C9.91623 7.52668 9.79945 7.25394 9.78027 6.84438C9.79072 6.34393 9.97614 5.84321 10.3377 5.4911C10.9649 5.01206 11.6754 4.71726 12.417 5.1395Z" fill="white"/>
<path d="M21.7445 23.9292C22.0408 24.1835 22.2312 24.3999 22.2702 24.7977C22.2907 25.4597 22.1502 25.9101 21.7029 26.4026C21.2286 26.8327 20.7681 26.9229 20.1345 26.9031C19.7769 26.8596 19.6156 26.7058 19.3735 26.4567C19.1308 26.0836 19.0984 25.742 19.1546 25.3109C19.2697 24.7791 19.5937 24.3312 20.0432 24.0292C20.5829 23.7161 21.1759 23.6341 21.7445 23.9292Z" fill="white"/>
<path d="M7.57325 9.76378C7.87529 9.98501 8.11781 10.2537 8.20969 10.6216C8.27248 11.1709 8.16251 11.5885 7.83609 12.0339C7.48148 12.4597 7.09071 12.7743 6.52449 12.8373C6.11862 12.8559 5.81429 12.7915 5.48093 12.5536C5.19259 12.2574 5.07582 11.9847 5.05664 11.5751C5.06709 11.0746 5.25251 10.5739 5.61404 10.2218C6.22319 9.76448 6.81047 9.51389 7.57325 9.76378Z" fill="white"/>
<path d="M5.82574 14.2855C6.27817 14.6075 6.58109 14.9986 6.67848 15.5513C6.7469 16.1841 6.64342 16.7328 6.25419 17.246C5.94945 17.5438 5.71039 17.6298 5.28914 17.65C4.89689 17.6383 4.63387 17.5574 4.34905 17.2835C3.97626 16.8273 3.85007 16.3288 3.86211 15.7455C3.90832 15.3194 4.04147 14.9481 4.31577 14.6186C4.37068 14.5746 4.42559 14.5307 4.48216 14.4854C4.52883 14.4469 4.5755 14.4084 4.62359 14.3688C4.97356 14.1352 5.43845 14.1639 5.82574 14.2855Z" fill="white"/>
<path d="M21.105 5.06647C21.6141 5.32538 21.9569 5.68148 22.2032 6.19906C22.296 6.61753 22.3121 7.04285 22.1782 7.45241C21.9568 7.75532 21.6889 7.99537 21.3213 8.0895C20.7932 8.15794 20.3492 8.01595 19.908 7.72489C19.492 7.39375 19.2311 6.94624 19.125 6.42392C19.0965 6.05293 19.1425 5.74845 19.3246 5.42457C19.782 4.90355 20.4793 4.80907 21.105 5.06647Z" fill="white"/>
<path d="M26.4708 19.1989C26.7702 19.4558 26.9651 19.6896 27.0449 20.0817C27.0615 20.6782 26.9129 21.1231 26.509 21.5628C26.0869 21.9634 25.7294 22.1497 25.148 22.1762C24.708 22.1627 24.4056 22.0327 24.0915 21.7265C23.8316 21.2962 23.8121 20.8957 23.9168 20.4148C24.1329 19.8262 24.504 19.4489 25.0482 19.149C25.5121 18.9506 26.0245 18.9673 26.4708 19.1989Z" fill="white"/>
<path d="M7.42993 19.3829C7.86045 19.7332 8.16004 20.1958 8.22391 20.7534C8.23719 21.1425 8.16926 21.428 7.94183 21.7475C7.71643 21.9849 7.50258 22.1326 7.16969 22.1631C6.56999 22.1779 6.09794 22.0657 5.63996 21.6559C5.24279 21.199 5.05385 20.7388 5.06176 20.1389C5.09427 19.7991 5.2075 19.5449 5.45823 19.3114C6.07752 18.8434 6.8029 18.973 7.42993 19.3829Z" fill="white"/>
<path d="M27.1129 14.2642C27.567 14.505 27.8047 14.8802 27.9758 15.3513C28.1223 15.8711 28.0631 16.3952 27.8427 16.8836C27.6263 17.1997 27.3893 17.4449 27.044 17.6165C26.6632 17.6796 26.2899 17.6751 25.95 17.4791C25.5585 17.1898 25.3322 16.8313 25.247 16.3506C25.1994 15.7914 25.2287 15.3115 25.5133 14.8183C25.9363 14.3208 26.4564 14.0435 27.1129 14.2642Z" fill="white"/>
<path d="M25.9527 9.86686C26.4562 10.1449 26.8127 10.5286 26.9767 11.0872C27.0277 11.4925 27.0589 11.9209 26.8686 12.2947C26.6264 12.5882 26.3558 12.792 25.9698 12.8352C25.3674 12.8536 24.8617 12.6812 24.4167 12.2674C23.986 11.7857 23.8908 11.356 23.8967 10.7181C23.9221 10.4011 23.9797 10.2657 24.1814 10.0212C24.7376 9.58944 25.3212 9.58207 25.9527 9.86686Z" fill="white"/>
<path d="M7.30187 23.4613C7.90832 23.7146 8.26903 24.0812 8.54146 24.679C8.61629 24.9563 8.63043 25.1868 8.56226 25.466C8.41498 25.7117 8.28241 25.8536 8.00902 25.9448C7.52717 25.994 7.10675 25.8562 6.72601 25.5607C6.3142 25.1707 6.06907 24.809 6.0498 24.2334C6.06099 23.9547 6.0856 23.7603 6.27859 23.5464C6.60499 23.3523 6.94232 23.3518 7.30187 23.4613Z" fill="white"/>
<path d="M8.14343 5.95738C8.348 6.07784 8.43829 6.14795 8.54276 6.35712C8.60705 6.87195 8.55539 7.24592 8.26173 7.67683C7.92084 8.09756 7.52239 8.39428 6.97872 8.48074C6.69384 8.50426 6.51934 8.4547 6.27989 8.28919C6.05671 8.07349 6.02368 7.86196 6.01367 7.55634C6.10741 7.04984 6.35994 6.61966 6.7671 6.30403C7.24051 5.98404 7.56458 5.89944 8.14343 5.95738Z" fill="white"/>
<path d="M25.7042 23.4795C25.9122 23.6755 25.9986 23.8641 26.0453 24.1458C26.0342 24.6383 25.8397 25.049 25.5128 25.4116C25.0907 25.7591 24.6732 25.9936 24.1152 25.9446C23.8503 25.8395 23.742 25.784 23.5828 25.5449C23.4736 25.0573 23.5499 24.7027 23.7972 24.2699C24.2298 23.6367 24.9384 23.2129 25.7042 23.4795Z" fill="white"/>
<path d="M24.7149 5.95804C25.1773 6.09304 25.5368 6.42391 25.799 6.82075C25.968 7.13057 26.0404 7.40369 26.046 7.75686C25.9488 8.06934 25.861 8.25446 25.5801 8.42309C25.1757 8.49286 24.7938 8.45265 24.4383 8.24482C23.9598 7.90086 23.6287 7.47424 23.521 6.8866C23.5163 6.58575 23.5686 6.41841 23.7166 6.15791C24.014 5.879 24.3286 5.91077 24.7149 5.95804Z" fill="white"/>
<path d="M30.0068 14.8105C30.3175 14.9105 30.3928 15.0154 30.5725 15.2852C30.7011 15.6746 30.7079 16.1647 30.5559 16.5469C30.3623 16.8859 30.3623 16.8859 30.1732 17.0174C29.9444 17.0549 29.9444 17.0549 29.7073 17.0174C29.405 16.7956 29.3081 16.5823 29.2414 16.218C29.2002 15.8094 29.238 15.4477 29.4411 15.0854C29.633 14.8666 29.7149 14.821 30.0068 14.8105Z" fill="white"/>
<path d="M2.41829 14.8851C2.72484 15.1671 2.80099 15.5048 2.83842 15.9095C2.80616 16.284 2.71433 16.6093 2.50149 16.9213C2.28115 17.0622 2.14192 17.0575 1.88585 17.0171C1.61173 16.8097 1.48816 16.6193 1.41997 16.2842C1.37197 15.8023 1.4023 15.4205 1.68619 15.0184C1.91006 14.7634 2.10352 14.7951 2.41829 14.8851Z" fill="white"/>
<path d="M16.8617 2.16035C17.0281 2.27694 17.0281 2.27694 17.128 2.42685C17.1654 2.65586 17.1654 2.65586 17.128 2.89321C16.9063 3.19577 16.6932 3.29278 16.3293 3.35957C15.9211 3.4008 15.5599 3.36292 15.1979 3.1597C15.0273 3.0098 15.0273 3.0098 14.9316 2.82658C14.9316 2.5656 14.9562 2.41784 15.1105 2.20616C15.623 1.83182 16.3172 1.86896 16.8617 2.16035Z" fill="white"/>
<path d="M16.8618 28.8754C17.0663 29.0238 17.1189 29.0878 17.1613 29.3376C17.1199 29.5916 17.0452 29.6961 16.8618 29.8747C16.4259 30.1172 15.9533 30.0972 15.4824 29.9906C15.2795 29.9246 15.146 29.8275 14.9983 29.6749C14.9009 29.4799 14.9021 29.358 14.9317 29.1419C15.4592 28.5887 16.1953 28.5245 16.8618 28.8754Z" fill="white"/>
<path d="M12.1577 28.1978C12.4049 28.3127 12.6126 28.4217 12.7356 28.6756C12.7647 28.8463 12.7647 28.8463 12.7356 29.0087C12.5289 29.2103 12.3705 29.2374 12.0867 29.2377C11.657 29.2272 11.3548 29.1211 11.0249 28.8484C10.8832 28.6741 10.9265 28.4912 10.9386 28.2759C11.3401 28.0115 11.7179 28.0404 12.1577 28.1978Z" fill="white"/>
<path d="M20.0907 2.59858C20.4774 2.66453 20.8083 2.79076 21.0999 3.05557C21.1873 3.2263 21.1873 3.2263 21.1873 3.40118C21.1018 3.60439 21.055 3.66394 20.8545 3.75928C20.4516 3.81723 20.0799 3.75553 19.7231 3.55941C19.5473 3.41342 19.4269 3.29151 19.3154 3.09305C19.3237 2.9598 19.3237 2.9598 19.4485 2.77659C19.6882 2.60387 19.8034 2.58127 20.0907 2.59858Z" fill="white"/>
<path d="M3.68305 10.8207C3.84725 11.0015 3.8798 11.1284 3.90768 11.3703C3.86415 11.806 3.75399 12.2529 3.41683 12.5529C3.16725 12.607 3.16725 12.607 2.95095 12.6195C2.71983 12.3549 2.71424 12.1594 2.72294 11.8177C2.76919 11.4953 2.89909 11.2204 3.08406 10.9539C3.31524 10.7996 3.41111 10.781 3.68305 10.8207Z" fill="white"/>
<path d="M12.6057 2.7265C12.6482 2.75948 12.6908 2.79246 12.7346 2.82644C12.7268 3.22857 12.7268 3.22857 12.5763 3.39325C12.1835 3.68706 11.7607 3.8046 11.2704 3.75916C11.0764 3.67473 10.9712 3.62221 10.8711 3.43437C10.8711 3.21939 10.9369 3.12723 11.0708 2.95968C11.5164 2.63717 12.0929 2.47509 12.6057 2.7265Z" fill="white"/>
<path d="M29.1734 19.2827C29.3817 19.5956 29.3441 19.9159 29.3065 20.2821C29.2032 20.6294 29.029 20.901 28.7075 21.0816C28.4797 21.071 28.4038 21.044 28.2416 20.8817C28.1395 20.4415 28.1933 20.0962 28.3747 19.6825C28.5941 19.3417 28.763 19.1595 29.1734 19.2827Z" fill="white"/>
<path d="M3.17204 19.2201C3.47419 19.3256 3.61636 19.5441 3.75128 19.821C3.88702 20.1737 3.93284 20.5154 3.81679 20.8815C3.72554 20.9986 3.72554 20.9986 3.61713 21.0814C3.36703 21.0814 3.25521 21.0501 3.07221 20.8773C2.8127 20.4563 2.67975 20.0481 2.75191 19.549C2.84701 19.3146 2.90398 19.2128 3.17204 19.2201Z" fill="white"/>
<path d="M28.5918 10.792C28.8413 10.8212 28.8413 10.8212 29.0285 10.9961C29.3166 11.405 29.3762 11.8622 29.3072 12.3535C29.2061 12.5091 29.2061 12.5091 29.1076 12.62C28.8366 12.6136 28.6792 12.5562 28.4919 12.366C28.2424 12.0479 28.1906 11.684 28.1758 11.2875C28.2755 10.8347 28.2755 10.8347 28.5918 10.792Z" fill="white"/>
<path d="M20.5628 28.1223C20.6753 28.1206 20.6753 28.1206 20.7901 28.1189C20.9871 28.1431 20.9871 28.1431 21.1127 28.2326C21.1868 28.343 21.1868 28.343 21.1993 28.5304C21.0842 28.8394 20.8652 28.9766 20.5878 29.1425C20.3773 29.2127 20.2141 29.2247 19.993 29.2299C19.9237 29.2324 19.8545 29.2349 19.7831 29.2375C19.5463 29.2028 19.4721 29.1247 19.3232 28.9426C19.4059 28.6115 19.503 28.4629 19.7891 28.2764C20.0529 28.1487 20.2708 28.1233 20.5628 28.1223Z" fill="white"/>
</svg>
