<svg width="600" height="600" viewBox="0 0 600 600" fill="none" xmlns="http://www.w3.org/2000/svg">
<g opacity="0.07">
<path d="M289.947 167.842C332.762 166.721 374.467 176.271 406.703 205.863C427.658 226.051 440.947 254.376 442.377 283.611C443.07 327.066 443.07 327.066 437.164 345.303C436.773 346.538 436.773 346.538 436.374 347.798C426.428 378.031 404.3 401.459 376.345 415.927C352.319 427.901 327.169 431.788 300.597 431.809C299.645 431.81 298.692 431.811 297.712 431.812C283.944 431.792 270.829 431.383 257.466 427.749C256.622 427.522 255.778 427.294 254.909 427.059C244.109 424.083 233.784 420.322 223.772 415.257C222.648 414.708 221.523 414.159 220.365 413.593C211.375 408.986 203.854 403.223 196.318 396.52C195.432 395.737 194.546 394.954 193.632 394.148C172.6 374.387 160.097 344.541 158.66 315.919C157.964 273.675 157.964 273.675 163.873 255.362C164.274 254.114 164.274 254.114 164.683 252.842C174.603 223.268 194.992 199.923 222.066 184.934C243.239 174.73 266.428 168.561 289.947 167.842ZM278.476 182.709C270.576 192.014 267.723 203.357 264.407 214.841C259.119 233.066 250.928 247.37 234.313 257.532C226.921 261.351 218.755 263.502 210.847 266.002C198.402 270.096 187.593 275.449 180.096 286.591C176.448 294.225 176.437 302.665 179.082 310.638C181.05 315.301 183.725 318.258 187.583 321.569C188.458 322.393 189.333 323.218 190.235 324.067C198.061 329.517 206.805 332.633 215.841 335.476C234.302 341.297 248.128 349.739 258.117 366.691C261.265 372.828 263.115 379.296 265.031 385.902C271.241 408.065 271.241 408.065 286.87 423.768C294.948 427.508 302.238 428.12 310.76 425.436C321.258 420.805 326.749 412.963 331.107 402.605C332.758 397.802 334.011 392.919 335.304 388.01C340.63 368.101 349.388 353.451 367.161 342.399C374.849 338.236 383.186 335.955 391.511 333.402C403.867 329.413 414.588 324.244 421.142 312.571C424.358 305.682 424.535 298.406 422.672 291.076C418.863 281.283 411.836 275.478 402.535 270.977C398.05 269.051 393.514 267.431 388.876 265.921C368.005 259.098 352.339 251.258 341.846 230.754C338.89 224.082 336.724 217.227 334.618 210.253C330.333 196.113 326.209 182.832 312.374 175.414C299.734 170.675 288.079 173.457 278.476 182.709Z" fill="#020013"/>
<path d="M331.781 245.719C345.969 255.702 356.681 269.151 359.79 286.591C361.6 306.775 359.924 323.864 347.311 340.306C346.763 341.074 346.214 341.842 345.649 342.633C336.912 354 322.816 360.745 308.982 363.455C292.332 365.559 277.502 360.73 263.945 351.226C251.47 341.316 244.021 327.201 241.239 311.575C240.891 307.896 240.822 304.259 240.849 300.566C240.855 299.581 240.861 298.597 240.868 297.582C241.025 289.713 242.077 282.709 244.983 275.348C245.393 274.303 245.803 273.258 246.226 272.181C253.137 256.694 266.22 244.692 281.952 238.575C299.29 233.387 316.658 236.038 331.781 245.719ZM274.933 280.345C270.137 287.927 267.979 295.07 268.693 304.079C271.328 314.867 275.584 322.218 284.999 328.204C293.271 332.471 301.811 333.327 310.717 330.503C320.017 326.335 326.954 319.84 331.01 310.403C333.792 301.494 333.066 293.839 328.914 285.512C323.674 276.6 317.337 271.227 307.32 268.375C295.227 265.785 282.866 271.093 274.933 280.345Z" fill="#020013"/>
<path d="M300.351 464.678C301.75 464.689 301.75 464.689 303.177 464.701C310.446 464.907 316.182 466.192 322.345 470.221C323.503 470.942 324.662 471.664 325.855 472.407C330.992 477.697 333.829 483.407 334.2 490.832C333.807 497.977 331.49 503.486 326.469 508.604C318.246 515.37 308.369 518.478 297.748 518.046C287.88 516.816 278.531 513.623 272.078 505.745C267.983 499.421 266.672 492.511 267.857 485.079C270.031 477.772 274.919 473.115 281.164 468.972C287.783 465.555 293.063 464.576 300.351 464.678Z" fill="#020013"/>
<path d="M322.729 88.6101C329.831 94.3943 333.103 99.8758 334.13 109.129C333.768 116.943 330.233 123.039 324.615 128.335C314.977 135.821 304.266 136.487 292.403 135.44C283.592 133.941 276.989 129.733 271.189 122.948C267.47 116.993 266.853 111.278 267.996 104.415C270.231 95.7491 274.542 91.5528 281.977 86.9998C294.405 80.542 310.931 80.8507 322.729 88.6101Z" fill="#020013"/>
<path d="M225.016 450.235C233.879 456.029 239.167 463.999 242.487 473.969C243.354 482.772 243.141 490.567 237.496 497.703C232.088 503.28 226.555 504.415 218.933 504.73C207.999 504.285 200.255 500.985 192.727 493.019C186.104 484.633 182.915 476.821 183.353 466.035C184.34 459.267 186.999 454.563 191.791 449.766C203.063 442.781 213.587 444.671 225.016 450.235Z" fill="#020013"/>
<path d="M232.795 96.3684C237.475 99.7722 240.629 103.658 242.476 109.207C243.747 121.142 241.683 129.794 234.228 139.231C228.193 145.757 220.037 151 211.03 151.977C203.317 152.207 197.668 151.218 191.312 146.682C185.906 141.128 183.716 136.014 183.357 128.335C183.552 118.951 187.029 109.563 193.808 102.961C205.569 93.9788 218.891 88.4513 232.795 96.3684Z" fill="#020013"/>
<path d="M407.684 448.673C413.24 453.44 416.809 457.499 417.541 464.956C417.925 477.369 415.29 485.814 406.904 495.049C398.011 503.113 389.376 504.804 377.496 504.433C370.791 503.617 367.766 500.733 363.228 496.064C358.677 489.068 358.069 482.663 359.123 474.579C361.281 464.609 367.356 456.21 375.785 450.547C385.904 444.678 397.023 443.139 407.684 448.673Z" fill="#020013"/>
<path d="M141.962 183.066C147.625 187.214 152.172 192.251 153.895 199.149C155.072 209.449 153.01 217.279 146.89 225.631C140.241 233.615 132.914 239.513 122.298 240.694C114.688 241.044 108.981 239.836 102.731 235.375C97.3245 229.821 95.135 224.707 94.7754 217.028C94.9713 207.645 98.4479 198.256 105.227 191.654C116.648 183.079 127.66 178.38 141.962 183.066Z" fill="#020013"/>
<path d="M109.194 267.853C117.677 273.892 123.357 281.225 125.183 291.588C126.466 303.452 124.525 313.742 117.227 323.364C111.514 328.947 107.031 330.559 99.1328 330.937C91.7781 330.718 86.8466 329.202 81.5061 324.067C74.5164 315.513 72.1502 306.166 72.3759 295.228C73.2424 287.24 75.7389 280.278 80.8822 274.099C81.9117 273.275 82.9412 272.45 84.0019 271.601C84.877 270.88 85.7521 270.158 86.6537 269.415C93.2156 265.036 101.932 265.573 109.194 267.853Z" fill="#020013"/>
<path d="M395.677 94.9975C405.222 99.852 411.651 106.529 416.267 116.234C418.009 124.08 418.31 132.055 415.799 139.734C411.648 145.413 406.625 149.914 399.732 151.679C389.831 152.963 381.506 150.3 373.234 144.843C365.433 138.634 360.54 130.243 358.552 120.45C358.017 113.494 358.88 107.785 362.295 101.712C370.871 91.9428 383.945 90.1713 395.677 94.9975Z" fill="#020013"/>
<path d="M496.279 359.981C501.892 364.797 505.546 369.181 507.042 376.532C507.355 387.718 504.567 396.059 496.995 404.302C489.08 411.815 482.377 415.307 471.476 415.803C463.225 415.551 457.556 413.113 451.666 407.371C446.793 399.304 446.428 391.795 448.39 382.778C452.443 371.741 459.4 364.668 469.605 359.044C478.303 355.324 487.91 355.637 496.279 359.981Z" fill="#020013"/>
<path d="M139.288 363.426C147.36 369.994 152.977 378.667 154.175 389.122C154.424 396.417 153.15 401.77 148.886 407.762C144.659 412.214 140.65 414.983 134.408 415.555C123.164 415.831 114.313 413.728 105.726 406.045C98.2787 397.478 94.7361 388.849 94.8845 377.601C95.4941 371.229 97.6172 366.462 102.318 362.084C113.93 353.31 127.531 355.739 139.288 363.426Z" fill="#020013"/>
<path d="M508.331 267.458C516.844 271.972 521.301 279.008 524.51 287.84C527.256 297.588 526.146 307.414 522.014 316.572C517.957 322.498 513.514 327.096 507.039 330.313C499.898 331.496 492.899 331.411 486.526 327.736C479.185 322.312 474.943 315.591 473.345 306.578C472.453 296.092 473.001 287.095 478.337 277.847C486.268 268.518 496.021 263.319 508.331 267.458Z" fill="#020013"/>
<path d="M486.587 185.013C496.027 190.225 502.712 197.42 505.788 207.893C506.743 215.493 507.329 223.526 503.76 230.535C499.219 236.038 494.146 239.859 486.908 240.67C475.613 241.015 466.131 237.782 457.787 230.023C449.711 220.992 447.927 212.933 448.038 200.974C448.514 195.03 449.593 192.49 453.376 187.906C463.804 179.811 474.747 179.673 486.587 185.013Z" fill="#020013"/>
<path d="M136.876 439.894C148.247 444.643 155.01 451.517 160.118 462.726C161.521 467.925 161.786 472.248 160.508 477.482C157.746 482.089 155.261 484.75 150.135 486.46C141.1 487.383 133.217 484.798 126.078 479.258C118.357 471.946 113.761 465.164 113.399 454.372C113.609 449.146 114.071 445.5 117.689 441.49C123.809 437.85 130.134 437.841 136.876 439.894Z" fill="#020013"/>
<path d="M152.642 111.706C156.478 113.965 158.171 115.279 160.129 119.201C161.335 128.854 160.366 135.866 154.86 143.946C148.468 151.834 140.997 157.398 130.804 159.019C125.462 159.46 122.19 158.531 117.701 155.428C113.516 151.383 112.897 147.417 112.709 141.687C114.467 132.19 119.202 124.124 126.836 118.206C135.712 112.206 141.788 110.62 152.642 111.706Z" fill="#020013"/>
<path d="M481.918 440.241C485.819 443.916 487.438 447.452 488.314 452.733C488.106 461.968 484.46 469.669 478.331 476.468C470.415 482.983 462.586 487.38 452.124 486.461C447.157 484.491 445.128 483.451 442.141 478.966C440.094 469.824 441.525 463.175 446.163 455.061C454.274 443.188 467.559 435.242 481.918 440.241Z" fill="#020013"/>
<path d="M463.37 111.705C472.04 114.237 478.782 120.44 483.698 127.881C486.867 133.69 488.224 138.811 488.329 145.433C486.505 151.292 484.861 154.763 479.593 157.925C472.011 159.233 464.849 158.479 458.184 154.583C449.213 148.133 443.005 140.134 440.986 129.116C440.897 123.475 441.877 120.337 444.652 115.453C450.23 110.223 456.127 110.819 463.37 111.705Z" fill="#020013"/>
<path d="M562.586 277.691C568.412 279.566 569.824 281.532 573.193 286.592C575.604 293.893 575.732 303.082 572.881 310.248C569.252 316.605 569.252 316.605 565.706 319.07C561.416 319.773 561.416 319.773 556.97 319.07C551.303 314.91 549.486 310.911 548.235 304.08C547.463 296.419 548.172 289.638 551.979 282.844C555.578 278.741 557.114 277.887 562.586 277.691Z" fill="#020013"/>
<path d="M45.3085 279.096C51.0563 284.384 52.4841 290.715 53.186 298.303C52.5811 305.326 50.8593 311.425 46.8684 317.275C42.7371 319.917 40.1266 319.829 35.3253 319.07C30.1855 315.183 27.8686 311.613 26.5899 305.329C25.6901 296.294 26.2588 289.135 31.5816 281.595C35.7793 276.813 39.4066 277.408 45.3085 279.096Z" fill="#020013"/>
<path d="M316.121 40.5015C319.241 42.6876 319.241 42.6876 321.113 45.4982C321.815 49.7923 321.815 49.7923 321.113 54.2425C316.957 59.9156 312.961 61.7345 306.138 62.9868C298.484 63.7598 291.711 63.0496 284.923 59.2393C281.726 56.4286 281.726 56.4286 279.932 52.9933C279.932 48.0998 280.392 45.3294 283.285 41.3603C292.894 34.3415 305.911 35.0378 316.121 40.5015Z" fill="#020013"/>
<path d="M316.117 541.424C319.952 544.207 320.937 545.407 321.733 550.09C320.956 554.853 319.556 556.813 316.117 560.162C307.943 564.708 299.082 564.332 290.253 562.333C286.449 561.097 283.945 559.276 281.176 556.414C279.35 552.759 279.373 550.473 279.928 546.421C289.819 536.048 303.62 534.844 316.117 541.424Z" fill="#020013"/>
<path d="M227.918 528.718C232.554 530.872 236.448 532.916 238.754 537.677C239.3 540.878 239.3 540.878 238.754 543.923C234.878 547.702 231.909 548.21 226.587 548.217C218.531 548.02 212.864 546.029 206.679 540.917C204.021 537.648 204.832 534.219 205.06 530.182C212.589 525.224 219.673 525.767 227.918 528.718Z" fill="#020013"/>
<path d="M376.666 48.7197C383.918 49.9563 390.12 52.3231 395.589 57.2883C397.227 60.4894 397.227 60.4894 397.227 63.7685C395.625 67.5786 394.747 68.6952 390.988 70.4829C383.434 71.5695 376.464 70.4126 369.773 66.7353C366.478 63.998 364.221 61.7121 362.13 57.991C362.286 55.4926 362.286 55.4926 364.626 52.0574C369.119 48.819 371.28 48.3951 376.666 48.7197Z" fill="#020013"/>
<path d="M69.0206 202.897C72.0993 206.287 72.7096 208.667 73.2323 213.203C72.4163 221.372 70.3506 229.751 64.029 235.376C59.3494 236.391 59.3494 236.391 55.2937 236.625C50.9601 231.664 50.8554 227.998 51.0186 221.591C51.8857 215.547 54.3213 210.392 57.7895 205.395C62.1241 202.502 63.9217 202.152 69.0206 202.897Z" fill="#020013"/>
<path d="M236.325 51.12C237.123 51.7383 237.921 52.3567 238.743 52.9937C238.595 60.5337 238.595 60.5337 235.775 63.6216C228.409 69.1304 220.482 71.3344 211.289 70.4823C207.652 68.8992 205.678 67.9146 203.802 64.3925C203.802 60.3616 205.035 58.6336 207.545 55.4921C215.902 49.4451 226.711 46.406 236.325 51.12Z" fill="#020013"/>
<path d="M546.968 361.542C550.874 367.408 550.168 373.414 549.464 380.28C547.526 386.792 544.26 391.885 538.232 395.27C533.96 395.071 532.538 394.567 529.497 391.522C527.583 383.268 528.591 376.794 531.993 369.037C536.106 362.648 539.273 359.231 546.968 361.542Z" fill="#020013"/>
<path d="M59.4284 360.372C65.0936 362.35 67.7593 366.447 70.2891 371.639C72.8343 378.251 73.6933 384.658 71.5175 391.523C69.8065 393.719 69.8065 393.719 67.7738 395.271C63.0845 395.271 60.9879 394.684 57.5566 391.445C52.6908 383.551 50.198 375.897 51.551 366.539C53.3341 362.143 54.4022 360.236 59.4284 360.372Z" fill="#020013"/>
<path d="M536.063 202.35C540.743 202.896 540.743 202.896 544.252 206.175C549.655 213.842 550.771 222.415 549.478 231.628C547.582 234.546 547.582 234.546 545.734 236.624C540.654 236.503 537.703 235.429 534.191 231.862C529.513 225.897 528.541 219.074 528.264 211.641C530.133 203.149 530.133 203.149 536.063 202.35Z" fill="#020013"/>
<path d="M385.519 527.293C387.628 527.262 387.628 527.262 389.779 527.23C393.474 527.684 393.474 527.684 395.829 529.362C397.218 531.431 397.218 531.431 397.452 534.945C395.295 540.74 391.188 543.311 385.987 546.422C382.041 547.738 378.98 547.964 374.833 548.061C373.535 548.108 372.237 548.154 370.9 548.203C366.459 547.552 365.068 546.088 362.276 542.674C363.827 536.466 365.646 533.68 371.012 530.182C375.958 527.788 380.042 527.312 385.519 527.293Z" fill="#020013"/>
</g>
</svg>
