<svg width="168" height="48" viewBox="0 0 168 48" fill="none" xmlns="http://www.w3.org/2000/svg">
<path d="M140.619 16.3467C141.684 17.3399 142.326 18.7948 142.442 20.2434C142.448 20.4474 142.45 20.6509 142.45 20.855C142.451 20.9314 142.451 21.0078 142.452 21.0865C142.453 21.2507 142.454 21.4149 142.454 21.5791C142.455 21.8394 142.456 22.0996 142.458 22.3598C142.463 23.0056 142.466 23.6513 142.469 24.2971C142.472 24.8442 142.475 25.3914 142.479 25.9386C142.481 26.1943 142.482 26.4501 142.482 26.7059C142.483 26.8631 142.485 27.0204 142.486 27.1777C142.486 27.2483 142.486 27.3189 142.486 27.3916C142.49 27.807 142.53 28.1574 142.678 28.5474C143.211 28.9026 143.69 28.8326 144.361 28.8842C144.361 29.9958 144.361 31.1074 144.361 32.2527C143.663 32.2631 143.663 32.2631 142.952 32.2737C142.807 32.2768 142.663 32.2799 142.514 32.283C141.421 32.2967 140.556 32.1551 139.745 31.3638C139.3 30.8527 139.064 30.3375 139.034 29.6619C139.029 29.5495 139.029 29.5495 139.023 29.4349C139.02 29.3574 139.017 29.2799 139.013 29.2C139.01 29.1212 139.006 29.0424 139.002 28.9612C138.994 28.7671 138.985 28.5731 138.977 28.379C138.945 28.4402 138.913 28.5014 138.88 28.5645C137.958 30.2507 136.542 31.2635 134.718 31.8527C132.274 32.5527 129.602 32.3584 127.35 31.159C127.013 30.9689 126.726 30.7458 126.442 30.4842C126.378 30.4302 126.315 30.3761 126.249 30.3204C125.548 29.6842 124.997 28.7268 124.911 27.7699C124.902 27.5603 124.9 27.3519 124.901 27.1421C124.902 27.0677 124.902 26.9932 124.903 26.9165C124.924 25.7647 125.262 24.8296 126.044 23.9704C128.09 22.0232 131.494 22.0835 134.134 22.0211C134.882 22.0034 135.629 21.9823 136.376 21.9412C136.433 21.9382 136.489 21.9353 136.548 21.9323C137.342 21.8854 138.169 21.8139 138.808 21.3053C139.04 20.98 138.982 20.6815 138.937 20.3007C138.787 19.4341 138.489 18.6725 137.775 18.1267C136.623 17.3932 135.374 17.2323 134.034 17.2366C133.862 17.2369 133.69 17.2349 133.517 17.2328C132.081 17.2259 130.633 17.4629 129.565 18.499C128.998 19.1197 128.756 19.8094 128.629 20.6316C127.934 20.5935 127.247 20.5148 126.558 20.4211C126.476 20.4101 126.394 20.3991 126.31 20.3878C126.194 20.3717 126.194 20.3717 126.076 20.3553C126.007 20.3457 125.937 20.3361 125.866 20.3262C125.685 20.2948 125.685 20.2948 125.432 20.2106C125.469 18.774 126.122 17.5102 127.089 16.479C128.414 15.2261 130.207 14.5559 131.994 14.3158C132.095 14.3018 132.095 14.3018 132.197 14.2875C135.115 13.9534 138.321 14.4166 140.619 16.3467ZM138.53 23.8158C137.062 24.351 135.403 24.303 133.863 24.3439C131.172 24.3559 131.172 24.3559 128.884 25.576C128.448 26.0666 128.364 26.6451 128.377 27.2842C128.478 28.0143 128.833 28.4805 129.389 28.9421C130.798 29.9657 132.692 29.9159 134.337 29.672C135.901 29.4132 137.549 28.7756 138.524 27.4737C138.959 26.8455 139.072 26.2812 139.069 25.5217C139.069 25.4132 139.068 25.3046 139.068 25.1928C139.067 25.0794 139.067 24.966 139.066 24.8527C139.066 24.7373 139.065 24.622 139.065 24.5066C139.064 24.2255 139.063 23.9443 139.061 23.6632C138.85 23.6632 138.724 23.7329 138.53 23.8158Z" fill="#F9F1E4"/>
<path d="M42.841 15.2132C44.6972 16.7946 45.182 19.3346 45.3738 21.6455C45.4539 22.7027 45.4492 23.7589 45.4446 24.8185C45.4443 25.0346 45.4441 25.2507 45.4439 25.4668C45.4433 25.9714 45.442 26.4759 45.4403 26.9805C45.4384 27.5564 45.4375 28.1324 45.4367 28.7084C45.4349 29.8898 45.4318 31.0712 45.4282 32.2527C44.2344 32.2527 43.0407 32.2527 41.8108 32.2527C41.8089 31.7971 41.8089 31.7971 41.807 31.3323C41.8028 30.3243 41.7972 29.3163 41.7909 28.3083C41.7872 27.6976 41.7838 27.087 41.7816 26.4764C41.7797 25.9434 41.7768 25.4105 41.773 24.8776C41.771 24.5961 41.7696 24.3145 41.7689 24.033C41.7723 21.1396 41.7723 21.1396 40.4825 18.6181C39.6984 17.8762 38.8605 17.7197 37.825 17.7418C37.297 17.7677 36.8298 17.904 36.3426 18.1053C36.2315 18.151 36.2315 18.151 36.1181 18.1977C34.7423 18.8276 33.8499 19.9883 33.271 21.3523C32.8486 22.4911 32.6316 23.6229 32.6237 24.8341C32.6229 24.9147 32.6221 24.9953 32.6212 25.0783C32.6186 25.3426 32.6165 25.6068 32.6144 25.8711C32.6127 26.0551 32.6109 26.2392 32.6091 26.4233C32.6045 26.9061 32.6003 27.389 32.5962 27.8719C32.5912 28.4521 32.5857 29.0323 32.5802 29.6125C32.572 30.4926 32.5645 31.3726 32.5569 32.2527C31.3631 32.2527 30.1694 32.2527 28.9395 32.2527C28.9395 26.3613 28.9395 20.4699 28.9395 14.4C30.1332 14.4 31.327 14.4 32.5569 14.4C32.5569 15.9007 32.5569 17.4013 32.5569 18.9474C32.6957 18.6139 32.8345 18.2805 32.9775 17.9369C33.9244 16.2378 35.4817 14.8775 37.3521 14.3158C39.2712 13.8277 41.2419 13.9539 42.841 15.2132ZM32.3886 19.3685C32.4728 19.5369 32.4728 19.5369 32.4728 19.5369L32.3886 19.3685Z" fill="#F9F1E4"/>
<path d="M61.253 15.1954C61.6407 15.538 61.9528 15.9171 62.2536 16.3369C62.3219 16.4308 62.3219 16.4308 62.3916 16.5267C63.9825 18.9364 63.8808 22.2082 63.8684 24.9665C63.8681 25.1786 63.8679 25.3907 63.8677 25.6028C63.8671 26.1529 63.8654 26.7031 63.8636 27.2532C63.8618 27.8178 63.8611 28.3824 63.8602 28.9471C63.8584 30.0489 63.8555 31.1508 63.852 32.2527C62.6583 32.2527 61.4645 32.2527 60.2346 32.2527C60.2327 31.8009 60.2327 31.8009 60.2309 31.34C60.2266 30.3404 60.221 29.3408 60.2148 28.3412C60.211 27.7357 60.2077 27.1301 60.2054 26.5246C60.2035 25.9961 60.2007 25.4677 60.1968 24.9392C60.1948 24.66 60.1934 24.3808 60.1927 24.1016C60.1919 21.1036 60.1919 21.1036 58.8044 18.5263C58.1706 17.985 57.478 17.7201 56.6487 17.7316C56.5829 17.7323 56.5171 17.733 56.4494 17.7337C55.1239 17.7717 53.9858 18.3292 53.0313 19.2372C50.6879 21.7643 50.9553 25.3821 50.9302 28.5853C50.9261 29.0731 50.921 29.5609 50.916 30.0486C50.9087 30.7833 50.9028 31.518 50.8966 32.2527C49.7306 32.2527 48.5646 32.2527 47.3633 32.2527C47.3633 26.3613 47.3633 20.4699 47.3633 14.4C48.5293 14.4 49.6953 14.4 50.8966 14.4C50.9243 15.8729 50.9521 17.3457 50.9807 18.8632C51.2028 18.4186 51.4249 17.9739 51.6537 17.5158C52.8364 15.783 54.3704 14.5708 56.4437 14.1579C58.1548 13.8579 59.8662 14.1084 61.253 15.1954ZM50.8125 19.2842C50.8966 19.4527 50.8966 19.4527 50.8966 19.4527L50.8125 19.2842Z" fill="#F9F1E4"/>
<path d="M83.6239 15.7422C86.5103 15.6667 89.3217 16.3104 91.4949 18.3053C92.9075 19.6662 93.8034 21.5757 93.8998 23.5465C93.9465 26.4759 93.9465 26.4759 93.5484 27.7053C93.522 27.7885 93.522 27.7885 93.4951 27.8735C92.8246 29.9116 91.3329 31.4909 89.4483 32.4662C87.8286 33.2735 86.1332 33.5355 84.3419 33.5369C84.2777 33.5369 84.2135 33.537 84.1474 33.5371C83.2192 33.5357 82.3351 33.5082 81.4342 33.2632C81.3774 33.2478 81.3205 33.2325 81.2619 33.2167C80.5338 33.0161 79.8378 32.7625 79.1628 32.4211C79.087 32.3841 79.0112 32.3471 78.9331 32.3089C78.3271 31.9983 77.8201 31.6098 77.3121 31.1579C77.2523 31.1052 77.1926 31.0524 77.131 30.9981C75.7131 29.6659 74.8702 27.6539 74.7734 25.7245C74.7264 22.8767 74.7264 22.8767 75.1248 21.6421C75.1518 21.558 75.1518 21.558 75.1794 21.4722C75.8482 19.4786 77.2226 17.9049 79.0478 16.8944C80.4751 16.2066 82.0384 15.7907 83.6239 15.7422ZM82.8506 16.7444C82.318 17.3717 82.1257 18.1363 81.9022 18.9106C81.5457 20.1391 80.9935 21.1034 79.8734 21.7884C79.3751 22.0459 78.8246 22.1909 78.2915 22.3594C77.4525 22.6354 76.7238 22.9963 76.2184 23.7474C75.9726 24.262 75.9718 24.831 76.1501 25.3685C76.2828 25.6828 76.4631 25.8822 76.7232 26.1053C76.7822 26.1609 76.8412 26.2165 76.9019 26.2737C77.4296 26.6411 78.019 26.8512 78.6282 27.0428C79.8727 27.4352 80.8047 28.0044 81.4781 29.1471C81.6904 29.5608 81.8151 29.9968 81.9443 30.4421C82.3629 31.9362 82.3629 31.9362 83.4165 32.9948C83.9611 33.2469 84.4525 33.2882 85.027 33.1073C85.7347 32.795 86.1049 32.2664 86.3987 31.5681C86.51 31.2444 86.5944 30.9152 86.6816 30.5842C87.0406 29.2422 87.6311 28.2546 88.8292 27.5095C89.3475 27.2289 89.9095 27.0751 90.4707 26.903C91.3037 26.6341 92.0264 26.2857 92.4682 25.4987C92.6851 25.0344 92.697 24.5438 92.5714 24.0497C92.3146 23.3895 91.8409 22.9982 91.2139 22.6948C90.9115 22.5649 90.6057 22.4558 90.2931 22.354C88.8861 21.894 87.83 21.3655 87.1226 19.9833C86.9233 19.5335 86.7773 19.0714 86.6354 18.6013C86.3465 17.648 86.0685 16.7527 85.1358 16.2527C84.2837 15.9332 83.498 16.1207 82.8506 16.7444Z" fill="#A2EF1B"/>
<path d="M104.821 14.4C106.098 14.4 107.375 14.4 108.691 14.4C109.164 15.5369 109.164 15.5369 109.335 15.9923C109.373 16.0956 109.412 16.1989 109.452 16.3054C109.493 16.416 109.534 16.5266 109.576 16.6372C109.62 16.7563 109.665 16.8754 109.71 16.9946C109.829 17.3142 109.949 17.6338 110.068 17.9535C110.168 18.2213 110.268 18.489 110.368 18.7567C110.628 19.4528 110.889 20.1489 111.148 20.8452C111.328 21.3258 111.507 21.8065 111.687 22.2871C111.928 22.931 112.168 23.5749 112.409 24.2189C112.499 24.46 112.589 24.7012 112.679 24.9424C113.476 27.0769 113.476 27.0769 113.79 27.9553C113.827 28.0589 113.864 28.1625 113.902 28.2693C114.028 28.6647 114.108 29.0622 114.159 29.4737C114.194 29.3517 114.194 29.3517 114.229 29.2272C114.262 29.1129 114.295 28.9986 114.328 28.8842C114.344 28.8252 114.361 28.7661 114.379 28.7053C114.669 27.6941 115 26.7054 115.371 25.721C115.528 25.3037 115.683 24.8857 115.839 24.4678C115.872 24.3778 115.906 24.2878 115.94 24.1951C116.209 23.4717 116.475 22.747 116.739 22.0217C116.769 21.9382 116.769 21.9382 116.8 21.8529C116.904 21.5687 117.007 21.2846 117.111 21.0004C117.912 18.7967 118.723 16.5969 119.543 14.4C120.82 14.4 122.097 14.4 123.413 14.4C122.809 16.0529 122.201 17.7038 121.585 19.3525C121.519 19.5303 121.453 19.7082 121.386 19.8861C120.612 21.9623 119.835 24.0375 119.057 26.1124C118.29 28.1578 117.527 30.2046 116.767 32.2527C115.018 32.2527 113.269 32.2527 111.467 32.2527C110.697 30.3244 110.697 30.3244 110.419 29.5582C110.352 29.3751 110.285 29.192 110.218 29.0089C110.184 28.9143 110.149 28.8197 110.114 28.7222C109.922 28.1978 109.73 27.6737 109.537 27.1497C109.517 27.0945 109.497 27.0393 109.476 26.9825C108.961 25.5819 108.434 24.1856 107.908 22.7895C107.861 22.6648 107.814 22.5401 107.767 22.4154C107.743 22.354 107.72 22.2926 107.696 22.2293C107.582 21.925 107.467 21.6208 107.352 21.3165C107.33 21.2575 107.308 21.1986 107.285 21.1379C106.826 19.9215 106.372 18.7034 105.921 17.4841C105.873 17.3552 105.825 17.2263 105.778 17.0974C105.755 17.0365 105.733 16.9757 105.709 16.913C105.578 16.559 105.444 16.206 105.309 15.8536C105.278 15.7724 105.247 15.6912 105.215 15.6076C105.154 15.4492 105.093 15.2909 105.031 15.1327C105.004 15.0615 104.976 14.9903 104.948 14.917C104.924 14.8537 104.899 14.7904 104.874 14.7252C104.821 14.5684 104.821 14.5684 104.821 14.4Z" fill="#F9F1E4"/>
<path d="M23.3027 7.24207C24.4965 7.24207 25.6902 7.24207 26.9202 7.24207C26.9202 15.4955 26.9202 23.749 26.9202 32.2526C25.7264 32.2526 24.5327 32.2526 23.3027 32.2526C23.3027 23.9991 23.3027 15.7456 23.3027 7.24207Z" fill="#F9F1E4"/>
<path d="M112.876 34.9632C113.41 35.4048 113.78 35.9433 113.907 36.6316C113.907 36.8261 113.907 37.0207 113.907 37.2211C113.241 37.2489 112.574 37.2767 111.888 37.3053C111.805 37.083 111.721 36.8607 111.636 36.6316C110.895 36.0445 109.838 36.0611 108.937 36.1527C108.401 36.2282 107.977 36.3483 107.513 36.6316C107.303 36.9471 107.293 37.1007 107.345 37.4737C107.778 37.867 108.264 37.907 108.828 37.9842C108.921 37.9982 109.014 38.0122 109.11 38.0265C109.546 38.0916 109.984 38.1517 110.421 38.2099C111.7 38.3832 113.072 38.5957 113.944 39.6474C114.404 40.325 114.377 41.0664 114.244 41.8527C113.984 42.7323 113.433 43.3464 112.645 43.7895C112.589 43.8215 112.533 43.8536 112.476 43.8865C110.991 44.6382 108.733 44.6262 107.177 44.1263C106.377 43.8211 105.712 43.3822 105.295 42.6158C105.076 42.1251 104.978 41.6304 104.99 41.0948C105.692 41.0144 106.386 41.0013 107.093 41.0106C107.126 41.1148 107.159 41.219 107.193 41.3263C107.367 41.7852 107.619 41.9491 108.055 42.1632C109.069 42.5373 110.372 42.4525 111.383 42.1053C111.69 41.9587 111.865 41.8033 112.056 41.5158C112.1 41.1731 112.1 41.1731 112.056 40.8421C111.363 40.1288 109.937 40.153 108.992 40.0294C107.721 39.8616 106.274 39.6258 105.432 38.5638C105.04 37.9563 104.992 37.3172 105.123 36.6227C105.329 35.8151 105.703 35.2465 106.409 34.7921C108.256 33.8124 111.12 33.7005 112.876 34.9632Z" fill="#A2EF1B"/>
<path d="M125.164 37.0263C125.254 37.0268 125.343 37.0273 125.435 37.0277C126.572 37.0454 127.594 37.2919 128.45 38.0895C129.277 38.9946 129.386 39.9698 129.386 41.1789C127.221 41.1789 125.055 41.1789 122.824 41.1789C123.197 41.9249 123.491 42.3151 124.255 42.6105C125.013 42.8069 125.989 42.8135 126.694 42.4421C127.051 42.2124 127.228 41.9721 127.451 41.6C128.09 41.6278 128.728 41.6556 129.386 41.6842C129.266 42.5236 128.961 43.1448 128.286 43.674C126.966 44.5478 125.16 44.5847 123.645 44.2895C122.72 44.0238 121.841 43.5503 121.337 42.7122C120.778 41.6564 120.647 40.6476 120.971 39.4878C121.313 38.5188 121.951 37.885 122.866 37.4421C123.625 37.0989 124.339 37.0217 125.164 37.0263ZM123.329 39.2421C123.005 39.6807 123.005 39.6807 122.939 40.1921C122.957 40.2399 122.975 40.2876 122.993 40.3368C123.041 40.2969 123.09 40.2569 123.14 40.2158C123.43 40.0138 123.695 39.9897 124.044 39.9827C124.155 39.9802 124.155 39.9802 124.268 39.9776C124.347 39.9762 124.427 39.9748 124.508 39.9733C124.631 39.9707 124.631 39.9707 124.756 39.968C125.016 39.9625 125.277 39.9576 125.537 39.9526C125.714 39.949 125.891 39.9453 126.068 39.9416C126.501 39.9326 126.934 39.9241 127.367 39.9158C127.229 39.4782 127.111 39.1418 126.703 38.8914C125.684 38.3646 124.158 38.339 123.329 39.2421Z" fill="#A2EF1B"/>
<path d="M86.4444 20.9921C87.4009 21.665 88.123 22.5717 88.3326 23.7473C88.4546 25.108 88.3416 26.26 87.4913 27.3684C87.4544 27.4202 87.4174 27.4719 87.3793 27.5253C86.7903 28.2916 85.84 28.7462 84.9074 28.9289C83.785 29.0708 82.7852 28.7453 81.8713 28.1046C81.0303 27.4365 80.5282 26.4849 80.3406 25.4315C80.3172 25.1836 80.3125 24.9384 80.3143 24.6894C80.3147 24.6231 80.3152 24.5567 80.3156 24.4883C80.3262 23.9578 80.3971 23.4856 80.593 22.9894C80.6206 22.919 80.6483 22.8485 80.6768 22.776C81.1427 21.7319 82.0246 20.9228 83.0852 20.5105C84.2541 20.1607 85.4249 20.3395 86.4444 20.9921ZM82.612 23.3263C82.2887 23.8374 82.1432 24.3189 82.1914 24.9263C82.369 25.6535 82.6559 26.1491 83.2906 26.5526C83.8483 26.8402 84.424 26.8979 85.0244 26.7075C85.6514 26.4266 86.119 25.9887 86.3924 25.3526C86.5799 24.752 86.531 24.2359 86.2511 23.6746C85.8978 23.0738 85.4707 22.7116 84.7954 22.5194C83.9801 22.3447 83.1469 22.7026 82.612 23.3263Z" fill="#A2EF1B"/>
<path d="M142.878 37.9316C143.596 38.6329 143.691 39.449 143.714 40.4128C143.716 40.4737 143.718 40.5345 143.72 40.5972C143.725 40.7894 143.73 40.9815 143.735 41.1737C143.739 41.3049 143.742 41.4361 143.746 41.5673C143.755 41.887 143.763 42.2066 143.772 42.5263C143.966 42.5819 144.16 42.6375 144.361 42.6948C144.361 43.2228 144.361 43.7508 144.361 44.2948C144.066 44.3062 143.772 44.3145 143.477 44.3211C143.395 44.3246 143.312 44.3281 143.227 44.3318C142.651 44.3414 142.282 44.2476 141.837 43.8737C141.648 43.6661 141.54 43.45 141.416 43.2C141.382 43.2447 141.347 43.2895 141.311 43.3355C140.768 44.0005 140.162 44.3079 139.301 44.3978C138.199 44.4554 137.227 44.3522 136.356 43.6082C135.977 43.2286 135.814 42.8305 135.777 42.2961C135.785 41.7653 135.94 41.3336 136.285 40.9263C137.203 40.1128 138.447 40.1259 139.608 40.079C139.8 40.0709 139.992 40.0625 140.185 40.0532C140.357 40.0449 140.53 40.0377 140.703 40.0306C140.975 40.0022 141.171 39.9484 141.416 39.8316C141.394 39.4418 141.394 39.4418 141.222 39.1053C140.648 38.6392 139.841 38.6792 139.145 38.7369C138.717 38.8092 138.406 38.8924 138.088 39.1948C137.98 39.3877 137.93 39.5347 137.883 39.7474C137.234 39.7606 136.595 39.72 135.948 39.6632C135.967 38.9129 136.216 38.4394 136.753 37.9211C138.332 36.6193 141.288 36.7032 142.878 37.9316ZM141.08 41.179C140.926 41.1942 140.773 41.2058 140.619 41.2151C140.528 41.2213 140.437 41.2275 140.343 41.2339C140.152 41.2463 139.962 41.2581 139.771 41.2694C138.913 41.3244 138.913 41.3244 138.162 41.7141C138.001 41.9152 138.006 42.1129 138.017 42.3635C138.042 42.5486 138.042 42.5486 138.225 42.7263C138.93 43.1171 139.619 43.0824 140.394 42.8869C140.811 42.7407 141.144 42.5543 141.418 42.202C141.579 41.8487 141.537 41.4735 141.5 41.0948C141.314 41.0859 141.314 41.0859 141.08 41.179Z" fill="#A2EF1B"/>
<path d="M20.0219 4.29477C20.6846 4.75691 21.0309 5.304 21.2837 6.0632C21.2913 6.26074 21.2936 6.4585 21.2933 6.65618C21.2933 6.71618 21.2933 6.77618 21.2933 6.83799C21.2933 7.0362 21.2926 7.2344 21.292 7.4326C21.2918 7.57007 21.2917 7.70753 21.2916 7.845C21.2913 8.20674 21.2905 8.56848 21.2895 8.93023C21.2887 9.29939 21.2883 9.66854 21.2879 10.0377C21.2869 10.762 21.2855 11.4863 21.2837 12.2106C21.108 12.1981 20.9322 12.1854 20.7565 12.1725C20.6587 12.1654 20.5608 12.1583 20.46 12.151C19.1402 12.0303 17.897 11.2674 17.0341 10.2856C16.6195 9.75523 16.3022 9.22051 16.0679 8.58951C16.0277 8.48823 16.0277 8.48823 15.9868 8.38491C15.6814 7.48064 15.62 6.27892 16.0311 5.4053C16.4493 4.7103 16.9569 4.24533 17.733 3.99313C18.5055 3.84669 19.3415 3.88123 20.0219 4.29477Z" fill="#A2EF1B"/>
<path d="M120.384 34.2736C120.384 34.8294 120.384 35.3852 120.384 35.9578C119.664 36.0315 119.664 36.0315 119.441 36.0535C119.037 36.0967 118.668 36.1709 118.281 36.2947C118.29 36.5429 118.29 36.5429 118.365 36.7999C118.745 37.0265 119.182 37.0056 119.612 37.021C119.994 37.0366 119.994 37.0366 120.384 37.0526C120.384 37.6362 120.384 38.2197 120.384 38.821C119.829 38.821 119.274 38.821 118.702 38.821C118.702 40.6273 118.702 42.4336 118.702 44.2947C118.008 44.2947 117.314 44.2947 116.599 44.2947C116.599 42.4884 116.599 40.6821 116.599 38.821C116.099 38.821 115.599 38.821 115.084 38.821C115.084 38.2374 115.084 37.6538 115.084 37.0526C115.612 37.0248 116.139 36.997 116.683 36.9684C116.516 36.7738 116.35 36.5793 116.178 36.3789C116.082 36.0058 116.131 35.6553 116.273 35.2999C117.287 34.1159 118.957 34.2531 120.384 34.2736Z" fill="#A2EF1B"/>
<path d="M132.247 37.1368C133.329 37.1368 134.412 37.1368 135.527 37.1368C135.527 37.6926 135.527 38.2484 135.527 38.8211C134.473 38.8211 133.418 38.8211 132.331 38.8211C132.331 40.6552 132.331 42.4893 132.331 44.3789C131.637 44.3789 130.943 44.3789 130.228 44.3789C130.228 42.5171 130.228 40.6552 130.228 38.7368C130.894 38.7368 131.56 38.7368 132.247 38.7368C132.247 38.2088 132.247 37.6808 132.247 37.1368Z" fill="#A2EF1B"/>
<path d="M84.3262 35.7527C84.4205 35.7534 84.4205 35.7534 84.5167 35.7542C85.0067 35.7681 85.3934 35.8547 85.8089 36.1264C85.887 36.175 85.965 36.2236 86.0455 36.2737C86.3918 36.6303 86.583 37.0153 86.6081 37.5158C86.5816 37.9975 86.4253 38.3688 86.0869 38.7139C85.5325 39.1699 84.8667 39.3795 84.1507 39.3504C83.4854 39.2674 82.8552 39.0522 82.4202 38.5211C82.1441 38.0948 82.0557 37.629 82.1356 37.128C82.2822 36.6354 82.6117 36.3215 83.0327 36.0421C83.4789 35.8118 83.8349 35.7458 84.3262 35.7527Z" fill="#A2EF1B"/>
<path d="M85.834 10.401C86.3128 10.791 86.5334 11.1605 86.6026 11.7843C86.5782 12.311 86.3399 12.7219 85.9612 13.079C85.3114 13.5837 84.5894 13.6286 83.7897 13.5579C83.1957 13.4569 82.7505 13.1732 82.3595 12.7158C82.1088 12.3144 82.0672 11.9292 82.1443 11.4665C82.2949 10.8823 82.5855 10.5994 83.0867 10.2925C83.9246 9.85715 85.0387 9.87796 85.834 10.401Z" fill="#A2EF1B"/>
<path d="M79.2469 34.7789C79.8444 35.1695 80.2009 35.7068 80.4247 36.3789C80.4831 36.9723 80.4688 37.4978 80.0882 37.9789C79.7236 38.3548 79.3506 38.4313 78.8368 38.4526C78.0997 38.4226 77.5776 38.2001 77.0702 37.6631C76.6236 37.0978 76.4087 36.5711 76.4382 35.844C76.5048 35.3878 76.684 35.0707 77.0071 34.7473C77.7669 34.2764 78.4764 34.4038 79.2469 34.7789Z" fill="#A2EF1B"/>
<path d="M79.7718 10.924C80.0873 11.1535 80.2999 11.4155 80.4244 11.7895C80.5101 12.5941 80.371 13.1774 79.8684 13.8135C79.4616 14.2535 78.9117 14.6069 78.3045 14.6727C77.7846 14.6883 77.4037 14.6216 76.9753 14.3158C76.6108 13.9414 76.4632 13.5967 76.439 13.079C76.4522 12.4464 76.6865 11.8135 77.1435 11.3685C77.9364 10.763 78.8345 10.3903 79.7718 10.924Z" fill="#A2EF1B"/>
<path d="M91.561 34.6737C91.9356 34.9951 92.1762 35.2687 92.2255 35.7714C92.2514 36.6082 92.0738 37.1775 91.5085 37.8001C90.9089 38.3437 90.3268 38.4577 89.5259 38.4326C89.0739 38.3777 88.87 38.1832 88.5641 37.8685C88.2572 37.3968 88.2163 36.9651 88.2874 36.4201C88.4328 35.748 88.8424 35.1818 89.4106 34.8001C90.0927 34.4044 90.8423 34.3007 91.561 34.6737Z" fill="#A2EF1B"/>
<path d="M73.6473 16.7684C74.0291 17.048 74.3356 17.3876 74.4518 17.8526C74.5312 18.5469 74.3922 19.0748 73.9796 19.6378C73.5313 20.176 73.0374 20.5736 72.3217 20.6532C71.8087 20.6768 71.424 20.5954 71.0026 20.2947C70.6382 19.9203 70.4906 19.5755 70.4663 19.0578C70.4795 18.4253 70.7139 17.7924 71.1709 17.3473C71.9408 16.7693 72.6832 16.4525 73.6473 16.7684Z" fill="#A2EF1B"/>
<path d="M71.4391 22.4842C72.011 22.8912 72.3939 23.3855 72.517 24.0842C72.6034 24.8839 72.4726 25.5776 71.9807 26.2263C71.5955 26.6027 71.2933 26.7113 70.7608 26.7368C70.265 26.722 69.9326 26.6198 69.5725 26.2736C69.1013 25.697 68.9418 25.0669 68.957 24.3296C69.0155 23.791 69.1838 23.3217 69.5305 22.9052C69.5999 22.8496 69.6693 22.7941 69.7408 22.7368C69.7998 22.6882 69.8588 22.6395 69.9196 22.5894C70.3619 22.2942 70.9495 22.3304 71.4391 22.4842Z" fill="#A2EF1B"/>
<path d="M90.7509 10.8316C91.3944 11.1588 91.8277 11.609 92.139 12.2632C92.2564 12.7921 92.2767 13.3297 92.1074 13.8474C91.8276 14.2303 91.4889 14.5337 91.0243 14.6526C90.3568 14.7392 89.7956 14.5597 89.2379 14.1918C88.712 13.7732 88.3822 13.2076 88.2481 12.5474C88.2121 12.0785 88.2702 11.6936 88.5005 11.2842C89.0787 10.6257 89.96 10.5063 90.7509 10.8316Z" fill="#A2EF1B"/>
<path d="M97.5338 28.6948C97.9122 29.0194 98.1586 29.315 98.2594 29.8106C98.2805 30.5646 98.0926 31.1269 97.5821 31.6826C97.0485 32.1891 96.5967 32.4245 95.8618 32.4579C95.3056 32.4409 94.9234 32.2765 94.5263 31.8895C94.1978 31.3456 94.1732 30.8395 94.3055 30.2316C94.5787 29.4876 95.0477 29.0107 95.7356 28.6316C96.322 28.3809 96.9697 28.4019 97.5338 28.6948Z" fill="#A2EF1B"/>
<path d="M73.4683 28.9269C74.0125 29.3697 74.3912 29.9544 74.4719 30.6592C74.4887 31.151 74.4028 31.5118 74.1153 31.9158C73.8304 32.2158 73.5601 32.4025 73.1393 32.4411C72.3813 32.4597 71.7847 32.3179 71.2058 31.8C70.7037 31.2225 70.4649 30.6408 70.4749 29.8825C70.516 29.453 70.6591 29.1316 70.9761 28.8365C71.7588 28.245 72.6757 28.4088 73.4683 28.9269Z" fill="#A2EF1B"/>
<path d="M98.3463 22.4576C98.9202 22.7619 99.2206 23.2361 99.4369 23.8316C99.6221 24.4887 99.5473 25.1511 99.2687 25.7684C98.9952 26.1679 98.6957 26.4779 98.2592 26.6948C97.7778 26.7745 97.306 26.7688 96.8764 26.5211C96.3814 26.1554 96.0955 25.7023 95.9878 25.0948C95.9276 24.3879 95.9646 23.7813 96.3243 23.1579C96.859 22.529 97.5164 22.1786 98.3463 22.4576Z" fill="#A2EF1B"/>
<path d="M96.8808 16.8997C97.5172 17.251 97.9678 17.7361 98.1752 18.4421C98.2396 18.9544 98.2791 19.4959 98.0385 19.9684C97.7324 20.3394 97.3904 20.597 96.9025 20.6516C96.141 20.6749 95.5018 20.457 94.9393 19.9339C94.3948 19.3251 94.2746 18.7818 94.2821 17.9756C94.3141 17.575 94.3869 17.4037 94.6419 17.0947C95.3449 16.549 96.0826 16.5397 96.8808 16.8997Z" fill="#A2EF1B"/>
<path d="M73.3053 34.0819C74.0718 34.4021 74.5278 34.8654 74.8721 35.6211C74.9667 35.9716 74.9846 36.2629 74.8984 36.6158C74.7123 36.9264 74.5447 37.1058 74.1991 37.2211C73.5901 37.2833 73.0586 37.109 72.5774 36.7355C72.0569 36.2426 71.747 35.7854 71.7227 35.0579C71.7368 34.7056 71.7679 34.4598 72.0118 34.1895C72.4244 33.9441 72.8508 33.9435 73.3053 34.0819Z" fill="#A2EF1B"/>
<path d="M74.3673 11.958C74.6259 12.1102 74.74 12.1988 74.8721 12.4632C74.9533 13.1139 74.888 13.5866 74.5169 14.1313C74.086 14.6631 73.5823 15.0381 72.8951 15.1474C72.535 15.1772 72.3145 15.1145 72.0118 14.9053C71.7297 14.6327 71.6879 14.3653 71.6753 13.979C71.7938 13.3388 72.113 12.7951 72.6276 12.3961C73.226 11.9916 73.6356 11.8847 74.3673 11.958Z" fill="#A2EF1B"/>
<path d="M96.5662 34.1053C96.8291 34.3531 96.9382 34.5914 96.9973 34.9474C96.9833 35.57 96.7375 36.0891 96.3243 36.5474C95.7907 36.9866 95.2629 37.283 94.5576 37.2211C94.2228 37.0883 94.086 37.0182 93.8846 36.7158C93.7466 36.0995 93.8431 35.6513 94.1557 35.1043C94.7025 34.3039 95.5982 33.7683 96.5662 34.1053Z" fill="#A2EF1B"/>
<path d="M95.3151 11.9579C95.8995 12.1285 96.354 12.5467 96.6854 13.0483C96.8991 13.4399 96.9905 13.7852 96.9976 14.2316C96.8747 14.6265 96.7638 14.8605 96.4087 15.0737C95.8975 15.1618 95.4148 15.111 94.9654 14.8483C94.3607 14.4136 93.9421 13.8743 93.806 13.1316C93.8 12.7513 93.8661 12.5398 94.0532 12.2105C94.4292 11.858 94.8267 11.8981 95.3151 11.9579Z" fill="#A2EF1B"/>
<path d="M102.003 23.1473C102.396 23.2737 102.491 23.4063 102.718 23.7473C102.88 24.2395 102.889 24.859 102.697 25.3421C102.452 25.7706 102.452 25.7706 102.213 25.9368C101.924 25.9842 101.924 25.9842 101.624 25.9368C101.242 25.6564 101.12 25.3868 101.035 24.9263C100.983 24.4098 101.031 23.9527 101.288 23.4947C101.53 23.2181 101.634 23.1605 102.003 23.1473Z" fill="#A2EF1B"/>
<path d="M67.1326 23.2421C67.5201 23.5985 67.6163 24.0253 67.6636 24.5368C67.6228 25.0103 67.5068 25.4214 67.2377 25.8157C66.9592 25.9939 66.7832 25.988 66.4596 25.9368C66.1131 25.6747 65.9569 25.4341 65.8707 25.0105C65.81 24.4014 65.8484 23.9188 66.2072 23.4105C66.4902 23.0881 66.7347 23.1283 67.1326 23.2421Z" fill="#A2EF1B"/>
<path d="M85.3879 7.15784C85.5982 7.3052 85.5982 7.3052 85.7244 7.49468C85.7717 7.78415 85.7717 7.78415 85.7244 8.08415C85.4442 8.46659 85.1749 8.58921 84.7149 8.67363C84.199 8.72574 83.7423 8.67786 83.2847 8.42099C83.0692 8.23152 83.0692 8.23152 82.9482 7.99994C82.9482 7.67006 82.9793 7.4833 83.1743 7.21573C83.8221 6.74257 84.6996 6.78952 85.3879 7.15784Z" fill="#A2EF1B"/>
<path d="M85.3883 40.9263C85.6467 41.1138 85.7131 41.1947 85.7668 41.5105C85.7145 41.8316 85.6201 41.9636 85.3883 42.1894C84.8372 42.4959 84.2399 42.4706 83.6446 42.3358C83.3882 42.2525 83.2194 42.1297 83.0327 41.9368C82.9097 41.6904 82.9111 41.5363 82.9486 41.2631C83.6154 40.5639 84.5458 40.4827 85.3883 40.9263Z" fill="#A2EF1B"/>
<path d="M79.4417 40.0697C79.7542 40.2149 80.0168 40.3527 80.1722 40.6737C80.209 40.8895 80.209 40.8895 80.1722 41.0947C79.9109 41.3495 79.7107 41.3837 79.352 41.3842C78.8089 41.3709 78.4268 41.2367 78.0099 40.8921C77.8308 40.6717 77.8854 40.4405 77.9008 40.1684C78.4083 39.8342 78.8859 39.8708 79.4417 40.0697Z" fill="#A2EF1B"/>
<path d="M89.4702 7.71179C89.959 7.79515 90.3772 7.95471 90.7459 8.28943C90.8563 8.50522 90.8563 8.50522 90.8563 8.72627C90.7482 8.98312 90.6891 9.05839 90.4357 9.1789C89.9264 9.25215 89.4566 9.17416 89.0055 8.92627C88.7834 8.74174 88.6312 8.58764 88.4902 8.33679C88.5008 8.16837 88.5008 8.16837 88.6585 7.93679C88.9614 7.71848 89.1071 7.68991 89.4702 7.71179Z" fill="#A2EF1B"/>
<path d="M68.7311 18.1053C68.9386 18.3338 68.9798 18.4943 69.015 18.8C68.96 19.3507 68.8207 19.9156 68.3946 20.2948C68.0791 20.3632 68.0791 20.3632 67.8057 20.379C67.5135 20.0446 67.5065 19.7974 67.5175 19.3655C67.5759 18.9581 67.7401 18.6106 67.9739 18.2737C68.2661 18.0787 68.3873 18.0551 68.7311 18.1053Z" fill="#A2EF1B"/>
<path d="M80.0094 7.87371C80.0632 7.9154 80.117 7.95708 80.1724 8.00003C80.1625 8.50832 80.1625 8.50832 79.9723 8.71648C79.4758 9.08784 78.9414 9.23642 78.3217 9.17898C78.0764 9.07226 77.9434 9.00588 77.8169 8.76845C77.8169 8.49672 77.9 8.38023 78.0693 8.16845C78.6326 7.76081 79.3613 7.55594 80.0094 7.87371Z" fill="#A2EF1B"/>
<path d="M100.951 28.8C101.215 29.1954 101.167 29.6003 101.12 30.0632C100.989 30.5021 100.769 30.8455 100.363 31.0737C100.075 31.0603 99.9787 31.0263 99.7737 30.8211C99.6447 30.2646 99.7126 29.8282 99.942 29.3053C100.219 28.8745 100.433 28.6442 100.951 28.8Z" fill="#A2EF1B"/>
<path d="M68.0845 28.721C68.4664 28.8544 68.6461 29.1306 68.8167 29.4806C68.9882 29.9264 69.0461 30.3583 68.8995 30.821C68.7841 30.9691 68.7841 30.9691 68.6471 31.0737C68.331 31.0737 68.1896 31.0341 67.9583 30.8158C67.6303 30.2836 67.4622 29.7676 67.5534 29.1368C67.6737 28.8405 67.7457 28.7119 68.0845 28.721Z" fill="#A2EF1B"/>
<path d="M100.215 18.0684C100.531 18.1052 100.531 18.1052 100.767 18.3263C101.131 18.8431 101.207 19.421 101.12 20.042C100.992 20.2388 100.992 20.2388 100.867 20.3789C100.525 20.3707 100.326 20.2983 100.089 20.0578C99.7737 19.6558 99.7082 19.1957 99.6895 18.6947C99.8155 18.1222 99.8155 18.1222 100.215 18.0684Z" fill="#A2EF1B"/>
<path d="M90.0678 39.9736C90.21 39.9715 90.21 39.9715 90.355 39.9694C90.6041 40 90.6041 40 90.7629 40.1131C90.8565 40.2526 90.8565 40.2526 90.8723 40.4894C90.7269 40.8801 90.45 41.0535 90.0994 41.2631C89.8334 41.3519 89.627 41.3671 89.3475 41.3736C89.26 41.3768 89.1725 41.3799 89.0823 41.3832C88.783 41.3393 88.6892 41.2406 88.501 41.0105C88.6055 40.5919 88.7281 40.4042 89.0899 40.1684C89.4233 40.007 89.6986 39.9749 90.0678 39.9736Z" fill="#A2EF1B"/>
</svg>
