<svg width="1920" height="1080" viewBox="0 0 1920 1080" fill="none" xmlns="http://www.w3.org/2000/svg">
<g clip-path="url(#clip0_415_727)">
<rect width="1920" height="1080" fill="#020013"/>
<ellipse cx="41.0344" cy="744.859" rx="1.34887" ry="1.06119" fill="white"/>
<ellipse cx="1806.79" cy="347.139" rx="1.34887" ry="1.06119" fill="white"/>
<ellipse cx="1391.95" cy="729.554" rx="1.34887" ry="1.06119" fill="white"/>
<ellipse opacity="0.4" cx="1663.05" cy="103.709" rx="1.34887" ry="1.06119" fill="white"/>
<ellipse cx="1522.46" cy="249.329" rx="1.34887" ry="1.06119" fill="white"/>
<ellipse cx="1367.79" cy="618.805" rx="1.34887" ry="1.06119" fill="white"/>
<ellipse cx="1072.5" cy="394.59" rx="1.34887" ry="1.06119" fill="white"/>
<ellipse opacity="0.4" cx="973.575" cy="850.57" rx="1.34887" ry="1.06119" fill="white"/>
<ellipse cx="1241.29" cy="530.167" rx="1.34887" ry="1.06119" fill="white"/>
<ellipse cx="1775.38" cy="111.935" rx="1.34887" ry="1.06119" fill="white"/>
<ellipse cx="1082.36" cy="588.865" rx="1.34887" ry="1.06119" fill="white"/>
<ellipse opacity="0.4" cx="1414.92" cy="157.727" rx="1.34887" ry="1.06119" fill="white"/>
<ellipse cx="408.587" cy="158.154" rx="1.34887" ry="1.06119" fill="white"/>
<ellipse opacity="0.4" cx="1707.41" cy="1044.58" rx="1.34887" ry="1.06119" fill="white"/>
<ellipse cx="933.716" cy="763.039" rx="1.34887" ry="1.06119" fill="white"/>
<ellipse opacity="0.4" cx="1219.04" cy="907.927" rx="1.34887" ry="1.06119" fill="white"/>
<ellipse opacity="0.4" cx="1220.28" cy="332.614" rx="1.34887" ry="1.06119" fill="white"/>
<ellipse opacity="0.4" cx="703.796" cy="724.825" rx="1.34887" ry="1.06119" fill="white"/>
<ellipse opacity="0.4" cx="1306.14" cy="1037.94" rx="1.34887" ry="1.06119" fill="white"/>
<ellipse opacity="0.4" cx="506.491" cy="995.758" rx="1.34887" ry="1.06119" fill="white"/>
<ellipse opacity="0.4" cx="251.286" cy="1057.29" rx="1.34887" ry="1.06119" fill="white"/>
<ellipse opacity="0.4" cx="1474.05" cy="267.78" rx="1.34887" ry="1.06119" fill="white"/>
<ellipse cx="1017.78" cy="36.9012" rx="1.34887" ry="1.06119" fill="white"/>
<ellipse cx="472.669" cy="161.555" rx="1.34887" ry="1.06119" fill="white"/>
<ellipse cx="1552.3" cy="1064.31" rx="1.34887" ry="1.06119" fill="white"/>
<ellipse opacity="0.4" cx="38.6848" cy="614.258" rx="1.34887" ry="1.06119" fill="white"/>
<ellipse opacity="0.4" cx="1418.87" cy="11.2357" rx="1.34887" ry="1.06119" fill="white"/>
<ellipse opacity="0.4" cx="1864.61" cy="286.024" rx="1.34887" ry="1.06119" fill="white"/>
<ellipse opacity="0.4" cx="688.431" cy="1027.84" rx="1.34887" ry="1.06119" fill="white"/>
<ellipse opacity="0.4" cx="1580.28" cy="944.08" rx="1.34887" ry="1.06119" fill="white"/>
<ellipse cx="754.837" cy="841.716" rx="1.34887" ry="1.06119" fill="white"/>
<ellipse opacity="0.4" cx="697.173" cy="1003.5" rx="1.34887" ry="1.06119" fill="white"/>
<ellipse opacity="0.4" cx="181.366" cy="207.969" rx="1.34887" ry="1.06119" fill="white"/>
<ellipse cx="1297.26" cy="804.124" rx="1.34887" ry="1.06119" fill="white"/>
<ellipse cx="64.22" cy="638.732" rx="1.34887" ry="1.06119" fill="white"/>
<ellipse cx="1.34887" cy="114.198" rx="1.34887" ry="1.06119" fill="white"/>
<ellipse cx="1246.76" cy="461.01" rx="1.34887" ry="1.06119" fill="white"/>
<ellipse cx="1615.78" cy="901.02" rx="1.34887" ry="1.06119" fill="white"/>
<ellipse opacity="0.4" cx="422.292" cy="251.427" rx="1.34887" ry="1.06119" fill="white"/>
<ellipse cx="1677.64" cy="929.723" rx="1.34887" ry="1.06119" fill="white"/>
<ellipse cx="197.841" cy="581.563" rx="1.34887" ry="1.06119" fill="white"/>
<ellipse cx="54.6086" cy="547.918" rx="1.34887" ry="1.06119" fill="white"/>
<ellipse opacity="0.4" cx="283.384" cy="637.937" rx="1.34887" ry="1.06119" fill="white"/>
<ellipse cx="848.689" cy="271.087" rx="1.34887" ry="1.06119" fill="white"/>
<ellipse opacity="0.4" cx="1908.14" cy="232.509" rx="1.34887" ry="1.06119" fill="white"/>
<ellipse opacity="0.4" cx="76.1106" cy="1021.49" rx="1.34887" ry="1.06119" fill="white"/>
<ellipse opacity="0.4" cx="1384.48" cy="74.6811" rx="1.34887" ry="1.06119" fill="white"/>
<ellipse cx="631.046" cy="206.166" rx="1.34887" ry="1.06119" fill="white"/>
<ellipse opacity="0.4" cx="812.743" cy="447.15" rx="1.34887" ry="1.06119" fill="white"/>
<ellipse opacity="0.4" cx="771.019" cy="644.97" rx="1.34887" ry="1.06119" fill="white"/>
<ellipse opacity="0.4" cx="1428.63" cy="355.72" rx="1.34887" ry="1.06119" fill="white"/>
<ellipse cx="782.825" cy="646.822" rx="1.34887" ry="1.06119" fill="white"/>
<ellipse opacity="0.4" cx="22.636" cy="753.753" rx="1.34887" ry="1.06119" fill="white"/>
<ellipse opacity="0.4" cx="1042.77" cy="806.725" rx="1.34887" ry="1.06119" fill="white"/>
<ellipse opacity="0.4" cx="436.829" cy="623.923" rx="1.34887" ry="1.06119" fill="white"/>
<ellipse cx="519.017" cy="304.779" rx="1.34887" ry="1.06119" fill="white"/>
<rect x="705.936" y="1048.87" width="1.34887" height="1.06119" fill="white"/>
<rect opacity="0.4" x="1300.72" y="648.913" width="1.34887" height="1.06119" fill="white"/>
<rect opacity="0.4" x="117.684" y="874.678" width="1.34887" height="1.06119" fill="white"/>
<rect x="1564.35" y="589.171" width="1.34887" height="1.06119" fill="white"/>
<rect opacity="0.4" x="76.6016" y="633.887" width="1.34887" height="1.06119" fill="white"/>
<rect x="1488.11" y="370.051" width="1.34887" height="1.06119" fill="white"/>
<rect x="180.18" y="837.606" width="1.34887" height="1.06119" fill="white"/>
<rect opacity="0.4" x="774.928" y="245.073" width="1.34887" height="1.06119" fill="white"/>
<rect opacity="0.4" x="340.844" y="692.108" width="1.34887" height="1.06119" fill="white"/>
<rect opacity="0.4" x="800.445" y="909.749" width="1.34887" height="1.06119" fill="white"/>
<rect x="1135.5" y="10.3476" width="1.34887" height="1.06119" fill="white"/>
<rect opacity="0.4" x="422.719" y="24.7566" width="1.34887" height="1.06119" fill="white"/>
<rect opacity="0.4" x="1512.21" y="858.528" width="1.34887" height="1.06119" fill="white"/>
<rect x="933.01" y="639.597" width="1.34887" height="1.06119" fill="white"/>
<rect opacity="0.4" x="1649.92" y="253.894" width="1.34887" height="1.06119" fill="white"/>
<rect x="146.537" y="3.20532" width="1.34887" height="1.06119" fill="white"/>
<rect x="1407.89" y="607.625" width="1.34887" height="1.06119" fill="white"/>
<rect x="1383.96" y="842.959" width="1.34887" height="1.06119" fill="white"/>
<rect x="1177.89" y="574.13" width="1.34887" height="1.06119" fill="white"/>
<rect opacity="0.4" x="1018.34" y="806.565" width="1.34887" height="1.06119" fill="white"/>
<rect opacity="0.4" x="977.664" y="708.629" width="1.34887" height="1.06119" fill="white"/>
<rect opacity="0.4" x="621.758" y="238.133" width="1.34887" height="1.06119" fill="white"/>
<rect x="15.1016" y="460.158" width="1.34887" height="1.06119" fill="white"/>
<rect x="272.457" y="102.435" width="1.34887" height="1.06119" fill="white"/>
<rect x="1099.4" y="52.8138" width="1.34887" height="1.06119" fill="white"/>
<rect x="465.857" y="193.133" width="1.34887" height="1.06119" fill="white"/>
<rect x="457.984" y="416.972" width="1.34887" height="1.06119" fill="white"/>
<rect x="1197.35" y="532.811" width="1.34887" height="1.06119" fill="white"/>
<rect opacity="0.4" x="576.328" y="255.928" width="1.34887" height="1.06119" fill="white"/>
<rect opacity="0.4" x="357.268" y="171.428" width="1.34887" height="1.06119" fill="white"/>
<rect x="1900.61" y="1042.12" width="1.34887" height="1.06119" fill="white"/>
<rect opacity="0.4" x="1639.2" y="410.224" width="1.34887" height="1.06119" fill="white"/>
<rect opacity="0.4" x="881.541" y="147.037" width="1.34887" height="1.06119" fill="white"/>
<rect opacity="0.4" x="1149.41" y="1078.94" width="1.34887" height="1.06119" fill="white"/>
<rect opacity="0.4" x="624.08" y="863.93" width="1.34887" height="1.06119" fill="white"/>
<rect x="1491.46" y="1019.87" width="1.34887" height="1.06119" fill="white"/>
<rect opacity="0.4" x="1446.16" y="606.536" width="1.34887" height="1.06119" fill="white"/>
<rect x="1382.51" y="647.48" width="1.34887" height="1.06119" fill="white"/>
<rect opacity="0.4" x="715.414" y="788.798" width="1.34887" height="1.06119" fill="white"/>
<rect opacity="0.4" x="1890.07" y="871.642" width="1.34887" height="1.06119" fill="white"/>
<rect opacity="0.4" x="1421.64" y="674.265" width="1.34887" height="1.06119" fill="white"/>
<rect x="1358.96" y="804.49" width="1.34887" height="1.06119" fill="white"/>
<rect x="348.605" y="512.198" width="1.34887" height="1.06119" fill="white"/>
<rect opacity="0.4" x="1072.2" y="16.5375" width="1.34887" height="1.06119" fill="white"/>
<rect x="397.338" y="269.549" width="1.34887" height="1.06119" fill="white"/>
<rect x="598.156" y="697.862" width="1.34887" height="1.06119" fill="white"/>
<rect x="299.098" y="741.584" width="1.34887" height="1.06119" fill="white"/>
<rect opacity="0.4" x="1027.13" y="509.636" width="1.34887" height="1.06119" fill="white"/>
<rect opacity="0.4" x="127.506" y="653.18" width="1.34887" height="1.06119" fill="white"/>
<rect x="279.697" y="855.115" width="1.34887" height="1.06119" fill="white"/>
<rect opacity="0.4" x="85.7422" y="557.261" width="1.34887" height="1.06119" fill="white"/>
<rect x="987.918" y="597.469" width="1.34887" height="1.06119" fill="white"/>
<rect opacity="0.4" x="374.408" y="616.332" width="1.34887" height="1.06119" fill="white"/>
<rect opacity="0.4" x="834.906" y="923.483" width="1.34887" height="1.06119" fill="white"/>
<rect x="1780.74" y="228.441" width="1.34887" height="1.06119" fill="white"/>
<rect opacity="0.4" x="1004.62" y="742.568" width="1.34887" height="1.06119" fill="white"/>
<rect opacity="0.4" x="601.24" y="237.818" width="1.34887" height="1.06119" fill="white"/>
<rect opacity="0.4" x="400.463" y="895.527" width="1.34887" height="1.06119" fill="white"/>
<rect opacity="0.4" x="530.514" y="671.406" width="1.34887" height="1.06119" fill="white"/>
<rect x="876.826" y="1020.75" width="1.34887" height="1.06119" fill="white"/>
<rect opacity="0.4" x="1757.12" y="683.641" width="1.34887" height="1.06119" fill="white"/>
<rect opacity="0.4" x="1235.31" width="1.34887" height="1.06119" fill="white"/>
<rect opacity="0.4" x="1170.54" y="13.7302" width="1.34887" height="1.06119" fill="white"/>
<rect x="1093.96" y="623.671" width="1.34887" height="1.06119" fill="white"/>
<rect opacity="0.4" x="968.111" y="938.034" width="1.34887" height="1.06119" fill="white"/>
<rect opacity="0.4" x="285.166" y="552.934" width="1.34887" height="1.06119" fill="white"/>
<rect opacity="0.4" x="802.691" y="167.278" width="1.34887" height="1.06119" fill="white"/>
<rect x="1911.52" y="299.048" width="1.34887" height="1.06119" fill="white"/>
<rect x="1576.57" y="594.204" width="1.34887" height="1.06119" fill="white"/>
<rect opacity="0.4" x="1135.1" y="391.195" width="1.34887" height="1.06119" fill="white"/>
<rect x="749.689" y="610.717" width="1.34887" height="1.06119" fill="white"/>
<rect x="1033.95" y="250.758" width="1.34887" height="1.06119" fill="white"/>
<rect opacity="0.4" x="1877.8" y="584.512" width="1.34887" height="1.06119" fill="white"/>
<rect opacity="0.4" x="1661.5" y="903.642" width="1.34887" height="1.06119" fill="white"/>
<rect x="463.285" y="238.371" width="1.34887" height="1.06119" fill="white"/>
<rect x="499.004" y="921.941" width="1.34887" height="1.06119" fill="white"/>
<rect x="1014" y="392.214" width="1.34887" height="1.06119" fill="white"/>
<rect opacity="0.4" x="191.561" y="674.141" width="1.34887" height="1.06119" fill="white"/>
<rect opacity="0.4" x="1762.4" y="360.28" width="1.34887" height="1.06119" fill="white"/>
<rect x="1790.57" y="745.292" width="1.34887" height="1.06119" fill="white"/>
<rect opacity="0.4" x="1872.66" y="1059.07" width="1.34887" height="1.06119" fill="white"/>
<rect x="0.201172" y="16.2246" width="1.34887" height="1.06119" fill="white"/>
<rect opacity="0.4" x="408.951" y="1077.24" width="1.34887" height="1.06119" fill="white"/>
<rect opacity="0.4" x="432.104" y="528.963" width="1.34887" height="1.06119" fill="white"/>
<rect x="1180.26" y="756.954" width="1.34887" height="1.06119" fill="white"/>
<rect x="1020.42" y="953.402" width="1.34887" height="1.06119" fill="white"/>
<rect opacity="0.4" x="1412.28" y="534.92" width="1.34887" height="1.06119" fill="white"/>
<rect opacity="0.4" x="1064.86" y="481.95" width="1.34887" height="1.06119" fill="white"/>
<rect opacity="0.4" x="498.783" y="100.589" width="1.34887" height="1.06119" fill="white"/>
<rect x="1044.09" y="282.906" width="1.34887" height="1.06119" fill="white"/>
<rect opacity="0.4" x="1382.78" y="287.48" width="1.34887" height="1.06119" fill="white"/>
<rect x="5.05273" y="402.681" width="1.34887" height="1.06119" fill="white"/>
<rect opacity="0.4" x="597.582" y="377.589" width="1.34887" height="1.06119" fill="white"/>
<rect opacity="0.4" x="1918.65" y="1022.76" width="1.34887" height="1.06119" fill="white"/>
<rect opacity="0.4" x="678.283" y="1057.64" width="1.34887" height="1.06119" fill="white"/>
<rect opacity="0.4" x="1866.69" y="409.186" width="1.34887" height="1.06119" fill="white"/>
<rect x="444.812" y="853.577" width="1.34887" height="1.06119" fill="white"/>
<rect x="1623.28" y="312.801" width="1.34887" height="1.06119" fill="white"/>
<rect opacity="0.4" x="426.955" y="475.719" width="1.34887" height="1.06119" fill="white"/>
<path opacity="0.4" d="M341.417 761.101L341.782 761.875L342.766 762.162L341.782 762.448L341.417 763.223L341.053 762.448L340.068 762.162L341.053 761.875L341.417 761.101Z" fill="white"/>
<path d="M629.355 1072.07L629.719 1072.84L630.704 1073.13L629.719 1073.42L629.355 1074.19L628.99 1073.42L628.006 1073.13L628.99 1072.84L629.355 1072.07Z" fill="white"/>
<path d="M333.9 225.256L334.264 226.03L335.249 226.317L334.264 226.604L333.9 227.378L333.535 226.604L332.551 226.317L333.535 226.03L333.9 225.256Z" fill="white"/>
<path opacity="0.4" d="M447.32 559.427L447.684 560.202L448.668 560.488L447.684 560.775L447.32 561.55L446.955 560.775L445.971 560.488L446.955 560.202L447.32 559.427Z" fill="white"/>
<path d="M1378.93 381.266L1379.3 382.04L1380.28 382.327L1379.3 382.614L1378.93 383.388L1378.57 382.614L1377.58 382.327L1378.57 382.04L1378.93 381.266Z" fill="white"/>
<path d="M71.0891 275.633L71.4534 276.408L72.438 276.694L71.4534 276.981L71.0891 277.756L70.7248 276.981L69.7402 276.694L70.7248 276.408L71.0891 275.633Z" fill="white"/>
<path d="M392.048 883.047L392.412 883.822L393.397 884.108L392.412 884.395L392.048 885.169L391.684 884.395L390.699 884.108L391.684 883.822L392.048 883.047Z" fill="white"/>
<path opacity="0.4" d="M9.12622 9.89267L9.49054 10.6672L10.4751 10.9539L9.49054 11.2405L9.12622 12.015L8.7619 11.2405L7.77734 10.9539L8.7619 10.6672L9.12622 9.89267Z" fill="white"/>
<path opacity="0.4" d="M303.566 793.499L303.93 794.274L304.915 794.56L303.93 794.847L303.566 795.621L303.201 794.847L302.217 794.56L303.201 794.274L303.566 793.499Z" fill="white"/>
<path opacity="0.4" d="M1115.76 909.914L1116.12 910.688L1117.1 910.975L1116.12 911.261L1115.76 912.036L1115.39 911.261L1114.41 910.975L1115.39 910.688L1115.76 909.914Z" fill="white"/>
<path d="M1804.9 730.654L1805.26 731.428L1806.25 731.715L1805.26 732.001L1804.9 732.776L1804.53 732.001L1803.55 731.715L1804.53 731.428L1804.9 730.654Z" fill="white"/>
<path opacity="0.4" d="M750.722 561.403L751.086 562.178L752.071 562.465L751.086 562.751L750.722 563.526L750.358 562.751L749.373 562.465L750.358 562.178L750.722 561.403Z" fill="white"/>
<path d="M1109.13 402.538L1109.5 403.313L1110.48 403.6L1109.5 403.886L1109.13 404.661L1108.77 403.886L1107.78 403.6L1108.77 403.313L1109.13 402.538Z" fill="white"/>
<path d="M381.474 356.248L381.838 357.023L382.823 357.309L381.838 357.596L381.474 358.371L381.11 357.596L380.125 357.309L381.11 357.023L381.474 356.248Z" fill="white"/>
<path opacity="0.4" d="M1033.9 784.25L1034.27 785.024L1035.25 785.311L1034.27 785.598L1033.9 786.372L1033.54 785.598L1032.55 785.311L1033.54 785.024L1033.9 784.25Z" fill="white"/>
<path d="M1787.32 835.33L1787.68 836.104L1788.66 836.391L1787.68 836.678L1787.32 837.452L1786.95 836.678L1785.97 836.391L1786.95 836.104L1787.32 835.33Z" fill="white"/>
<path opacity="0.4" d="M1841.52 554.182L1841.88 554.957L1842.87 555.244L1841.88 555.53L1841.52 556.305L1841.15 555.53L1840.17 555.244L1841.15 554.957L1841.52 554.182Z" fill="white"/>
<path opacity="0.4" d="M517.046 149.199L517.41 149.974L518.395 150.261L517.41 150.547L517.046 151.322L516.682 150.547L515.697 150.261L516.682 149.974L517.046 149.199Z" fill="white"/>
<path d="M273.831 973.963L274.196 974.738L275.18 975.024L274.196 975.311L273.831 976.085L273.467 975.311L272.482 975.024L273.467 974.738L273.831 973.963Z" fill="white"/>
<path d="M1313.71 1012.6L1314.08 1013.37L1315.06 1013.66L1314.08 1013.94L1313.71 1014.72L1313.35 1013.94L1312.37 1013.66L1313.35 1013.37L1313.71 1012.6Z" fill="white"/>
<path d="M66.2786 564.698L66.6429 565.473L67.6274 565.759L66.6429 566.046L66.2786 566.821L65.9142 566.046L64.9297 565.759L65.9142 565.473L66.2786 564.698Z" fill="white"/>
<path opacity="0.4" d="M1263.93 697.855L1264.3 698.63L1265.28 698.916L1264.3 699.203L1263.93 699.978L1263.57 699.203L1262.58 698.916L1263.57 698.63L1263.93 697.855Z" fill="white"/>
<path d="M539.187 286.57L539.551 287.345L540.536 287.632L539.551 287.918L539.187 288.693L538.822 287.918L537.838 287.632L538.822 287.345L539.187 286.57Z" fill="white"/>
<path d="M398.624 1035.58L398.989 1036.36L399.973 1036.65L398.989 1036.93L398.624 1037.71L398.26 1036.93L397.275 1036.65L398.26 1036.36L398.624 1035.58Z" fill="white"/>
<path d="M220.884 410.33L221.248 411.105L222.233 411.392L221.248 411.678L220.884 412.453L220.52 411.678L219.535 411.392L220.52 411.105L220.884 410.33Z" fill="white"/>
<path opacity="0.4" d="M1473.79 721.491L1474.16 722.265L1475.14 722.552L1474.16 722.838L1473.79 723.613L1473.43 722.838L1472.44 722.552L1473.43 722.265L1473.79 721.491Z" fill="white"/>
<path opacity="0.4" d="M1542.99 511.115L1543.35 511.89L1544.34 512.176L1543.35 512.463L1542.99 513.238L1542.63 512.463L1541.64 512.176L1542.63 511.89L1542.99 511.115Z" fill="white"/>
<path d="M858.099 155.105L858.463 155.88L859.448 156.167L858.463 156.453L858.099 157.228L857.735 156.453L856.75 156.167L857.735 155.88L858.099 155.105Z" fill="white"/>
<path d="M1300.61 718.866L1300.98 719.64L1301.96 719.927L1300.98 720.213L1300.61 720.988L1300.25 720.213L1299.27 719.927L1300.25 719.64L1300.61 718.866Z" fill="white"/>
<path d="M1918.16 929.242L1918.53 930.016L1919.51 930.303L1918.53 930.59L1918.16 931.364L1917.8 930.59L1916.81 930.303L1917.8 930.016L1918.16 929.242Z" fill="white"/>
<path d="M1202.44 930.306L1202.81 931.081L1203.79 931.367L1202.81 931.654L1202.44 932.429L1202.08 931.654L1201.09 931.367L1202.08 931.081L1202.44 930.306Z" fill="white"/>
<path d="M576.997 350.801L577.362 351.576L578.346 351.862L577.362 352.149L576.997 352.924L576.633 352.149L575.648 351.862L576.633 351.576L576.997 350.801Z" fill="white"/>
<path opacity="0.4" d="M1536.68 607.405L1537.05 608.179L1538.03 608.466L1537.05 608.752L1536.68 609.527L1536.32 608.752L1535.33 608.466L1536.32 608.179L1536.68 607.405Z" fill="white"/>
<path opacity="0.4" d="M1337.16 983.975L1337.53 984.749L1338.51 985.036L1337.53 985.323L1337.16 986.097L1336.8 985.323L1335.81 985.036L1336.8 984.749L1337.16 983.975Z" fill="white"/>
<path d="M930.154 1058.14L930.518 1058.91L931.502 1059.2L930.518 1059.48L930.154 1060.26L929.789 1059.48L928.805 1059.2L929.789 1058.91L930.154 1058.14Z" fill="white"/>
<path opacity="0.4" d="M1109.31 136.858L1109.68 137.633L1110.66 137.919L1109.68 138.206L1109.31 138.98L1108.95 138.206L1107.96 137.919L1108.95 137.633L1109.31 136.858Z" fill="white"/>
<path d="M535.919 838.165L536.284 838.94L537.268 839.226L536.284 839.513L535.919 840.287L535.555 839.513L534.57 839.226L535.555 838.94L535.919 838.165Z" fill="white"/>
<path opacity="0.4" d="M880.177 679.224L880.541 679.998L881.526 680.285L880.541 680.571L880.177 681.346L879.813 680.571L878.828 680.285L879.813 679.998L880.177 679.224Z" fill="white"/>
<path d="M968.439 309.549L968.803 310.323L969.788 310.61L968.803 310.896L968.439 311.671L968.074 310.896L967.09 310.61L968.074 310.323L968.439 309.549Z" fill="white"/>
<path opacity="0.4" d="M1711.78 985.143L1712.14 985.917L1713.13 986.204L1712.14 986.491L1711.78 987.265L1711.41 986.491L1710.43 986.204L1711.41 985.917L1711.78 985.143Z" fill="white"/>
<path opacity="0.4" d="M1754.68 902.72L1755.04 903.494L1756.03 903.781L1755.04 904.068L1754.68 904.842L1754.31 904.068L1753.33 903.781L1754.31 903.494L1754.68 902.72Z" fill="white"/>
<path d="M419.952 107.307L420.317 108.081L421.301 108.368L420.317 108.654L419.952 109.429L419.588 108.654L418.604 108.368L419.588 108.081L419.952 107.307Z" fill="white"/>
<path opacity="0.4" d="M1663.77 474.972L1664.14 475.746L1665.12 476.033L1664.14 476.319L1663.77 477.094L1663.41 476.319L1662.42 476.033L1663.41 475.746L1663.77 474.972Z" fill="white"/>
<path opacity="0.4" d="M926.956 282.555L927.321 283.329L928.305 283.616L927.321 283.903L926.956 284.677L926.592 283.903L925.607 283.616L926.592 283.329L926.956 282.555Z" fill="white"/>
<path opacity="0.4" d="M1517.65 355.531L1518.02 356.306L1519 356.592L1518.02 356.879L1517.65 357.653L1517.29 356.879L1516.3 356.592L1517.29 356.306L1517.65 355.531Z" fill="white"/>
<path d="M1189.96 999.427L1190.32 1000.2L1191.31 1000.49L1190.32 1000.78L1189.96 1001.55L1189.6 1000.78L1188.61 1000.49L1189.6 1000.2L1189.96 999.427Z" fill="white"/>
<path d="M1542.46 583.784L1542.83 584.558L1543.81 584.845L1542.83 585.132L1542.46 585.906L1542.1 585.132L1541.12 584.845L1542.1 584.558L1542.46 583.784Z" fill="white"/>
<path opacity="0.4" d="M1036.2 419.877L1036.56 420.652L1037.55 420.938L1036.56 421.225L1036.2 421.999L1035.83 421.225L1034.85 420.938L1035.83 420.652L1036.2 419.877Z" fill="white"/>
<path opacity="0.4" d="M1771.79 57.6948L1772.16 58.4694L1773.14 58.756L1772.16 59.0426L1771.79 59.8172L1771.43 59.0426L1770.44 58.756L1771.43 58.4694L1771.79 57.6948Z" fill="white"/>
<path opacity="0.4" d="M325.691 654.932L326.055 655.707L327.04 655.993L326.055 656.28L325.691 657.055L325.326 656.28L324.342 655.993L325.326 655.707L325.691 654.932Z" fill="white"/>
<ellipse opacity="0.2" cx="960" cy="110.5" rx="1311" ry="533.5" fill="url(#paint0_linear_415_727)"/>
</g>
<defs>
<linearGradient id="paint0_linear_415_727" x1="960" y1="-423" x2="960" y2="374.5" gradientUnits="userSpaceOnUse">
<stop stop-color="#ABF5FF"/>
<stop offset="1" stop-color="#ABF5FF" stop-opacity="0"/>
</linearGradient>
<clipPath id="clip0_415_727">
<rect width="1920" height="1080" fill="white"/>
</clipPath>
</defs>
</svg>
