<svg width="1088" height="361" viewBox="0 0 1088 361" fill="none" xmlns="http://www.w3.org/2000/svg">
<rect opacity="0.8" y="1" width="1088" height="358" fill="url(#paint0_radial_271_907)"/>
<rect x="439.5" y="76.1006" width="209" height="209" rx="104.5" fill="url(#paint1_linear_271_907)" stroke="#AC8EFF"/>
<rect x="404.5" y="41.1006" width="279" height="279" rx="139.5" fill="url(#paint2_linear_271_907)" stroke="#AC8EFF"/>
<rect x="364.5" y="1.10059" width="359" height="359" rx="179.5" fill="url(#paint3_linear_271_907)" stroke="#AC8EFF"/>
<g clip-path="url(#clip0_271_907)">
<g clip-path="url(#clip1_271_907)">
<path d="M294 180.601C294 169.555 285.046 160.601 274 160.601C262.954 160.601 254 169.555 254 180.601C254 191.646 262.954 200.601 274 200.601C285.046 200.601 294 191.646 294 180.601Z" fill="#8B62FF" fill-opacity="0.0905882"/>
<path d="M293.861 180.601C293.861 169.632 284.969 160.739 274 160.739C263.031 160.739 254.139 169.632 254.139 180.601C254.139 191.57 263.031 200.462 274 200.462C284.969 200.462 293.861 191.57 293.861 180.601Z" stroke="url(#paint4_linear_271_907)" stroke-opacity="0.2" stroke-width="0.555556"/>
</g>
</g>
<path d="M267.912 175.125C267.912 173.316 269.378 171.851 271.186 171.851H276.804C278.613 171.851 280.079 173.316 280.079 175.125C280.079 176.27 279.491 177.277 278.601 177.863C279.491 178.448 280.079 179.456 280.079 180.601C280.079 182.409 278.613 183.875 276.804 183.875H276.733C275.886 183.875 275.113 183.553 274.532 183.024V186.041C274.532 187.873 273.027 189.351 271.204 189.351C269.4 189.351 267.912 187.889 267.912 186.076C267.912 184.931 268.5 183.924 269.39 183.338C268.5 182.753 267.912 181.746 267.912 180.601C267.912 179.456 268.5 178.448 269.39 177.863C268.5 177.277 267.912 176.27 267.912 175.125ZM271.186 177.326H273.459V172.923H271.186C269.97 172.923 268.985 173.909 268.985 175.125C268.985 176.341 269.97 177.326 271.186 177.326ZM273.459 178.399H271.186C269.97 178.399 268.985 179.385 268.985 180.601C268.985 181.817 269.97 182.802 271.186 182.802H273.459V178.399ZM273.459 183.875H271.186C269.97 183.875 268.985 184.86 268.985 186.076C268.985 187.288 269.983 188.278 271.204 188.278C272.444 188.278 273.459 187.272 273.459 186.041V183.875ZM276.733 178.399C275.517 178.399 274.532 179.385 274.532 180.601C274.532 181.817 275.517 182.802 276.733 182.802H276.804C278.02 182.802 279.006 181.817 279.006 180.601C279.006 179.385 278.02 178.399 276.804 178.399H276.733ZM276.804 177.326C278.02 177.326 279.006 176.341 279.006 175.125C279.006 173.909 278.02 172.923 276.804 172.923H274.532V177.326H276.804Z" fill="white"/>
<g clip-path="url(#clip2_271_907)">
<g clip-path="url(#clip3_271_907)">
<path d="M366 180.601C366 165.137 353.464 152.601 338 152.601C322.536 152.601 310 165.137 310 180.601C310 196.065 322.536 208.601 338 208.601C353.464 208.601 366 196.065 366 180.601Z" fill="#8B62FF" fill-opacity="0.0905882"/>
<path d="M365.806 180.6C365.806 165.244 353.357 152.795 338.001 152.795C322.644 152.795 310.195 165.244 310.195 180.6C310.195 195.957 322.644 208.406 338.001 208.406C353.357 208.406 365.806 195.957 365.806 180.6Z" stroke="url(#paint5_linear_271_907)" stroke-opacity="0.2" stroke-width="0.777778"/>
</g>
</g>
<path d="M349.842 178.046L349.807 177.957L346.474 168.921C346.41 168.746 346.291 168.597 346.135 168.494C345.98 168.392 345.795 168.342 345.609 168.353C345.423 168.364 345.245 168.434 345.102 168.553C344.959 168.673 344.858 168.835 344.815 169.016L342.562 176.166H333.445L331.193 169.016C331.159 168.882 331.093 168.758 331.002 168.654C330.911 168.55 330.797 168.469 330.668 168.418C330.54 168.367 330.401 168.346 330.264 168.359C330.126 168.372 329.993 168.417 329.877 168.491C329.72 168.595 329.6 168.746 329.534 168.921L326.191 177.951L326.16 178.044C325.679 179.35 325.62 180.773 325.99 182.115C326.352 183.444 327.131 184.621 328.212 185.475L328.225 185.483L328.254 185.506L333.335 189.456L335.848 191.43L337.379 192.63C337.556 192.77 337.776 192.847 338.002 192.847C338.228 192.847 338.447 192.77 338.625 192.63L340.154 191.43L342.667 189.456L347.777 185.483L347.791 185.471C348.87 184.618 349.647 183.442 350.009 182.115C350.378 180.775 350.32 179.354 349.842 178.049V178.046Z" fill="#9C9DA1"/>
<path d="M349.842 178.045L349.807 177.956C348.174 178.306 346.641 179.021 345.324 180.047L338 185.798C340.494 187.758 342.666 189.459 342.666 189.459L347.776 185.486L347.789 185.474C348.87 184.621 349.648 183.444 350.01 182.116C350.38 180.775 350.321 179.351 349.842 178.045Z" fill="#9C9DA1"/>
<path d="M333.336 189.459L335.849 191.433L337.38 192.633C337.558 192.773 337.777 192.849 338.003 192.849C338.229 192.849 338.449 192.773 338.626 192.633L340.156 191.433L342.669 189.459C342.669 189.459 340.495 187.751 338.001 185.798C335.508 187.751 333.336 189.459 333.336 189.459Z" fill="#9C9DA1"/>
<path d="M330.675 180.048C329.349 179.015 327.818 178.298 326.194 177.951L326.159 178.042C325.679 179.348 325.62 180.772 325.991 182.113C326.353 183.442 327.132 184.619 328.213 185.473L328.225 185.481L328.255 185.504L333.335 189.454L338.001 185.793L330.675 180.048Z" fill="#9C9DA1"/>
<g clip-path="url(#clip4_271_907)">
<g clip-path="url(#clip5_271_907)">
<path d="M454 180.601C454 160.718 437.882 144.601 418 144.601C398.118 144.601 382 160.718 382 180.601C382 200.483 398.118 216.601 418 216.601C437.882 216.601 454 200.483 454 180.601Z" fill="#8B62FF" fill-opacity="0.0905882"/>
<path d="M453.75 180.601C453.75 160.856 437.744 144.851 418 144.851C398.256 144.851 382.25 160.856 382.25 180.601C382.25 200.345 398.256 216.351 418 216.351C437.744 216.351 453.75 200.345 453.75 180.601Z" stroke="url(#paint6_linear_271_907)" stroke-opacity="0.2"/>
</g>
</g>
<path d="M416.801 175.653V193.225H402.25L416.801 175.653ZM416.803 169.351C416.803 171.278 416.037 173.127 414.674 174.489C413.311 175.852 411.463 176.618 409.535 176.618C407.608 176.618 405.76 175.852 404.397 174.489C403.034 173.127 402.268 171.278 402.268 169.351H416.803ZM419.199 193.223C419.199 192.269 419.387 191.324 419.752 190.442C420.118 189.56 420.653 188.759 421.328 188.084C422.003 187.409 422.804 186.874 423.686 186.509C424.567 186.144 425.512 185.956 426.467 185.956C427.421 185.956 428.366 186.144 429.248 186.509C430.13 186.874 430.931 187.409 431.606 188.084C432.28 188.759 432.816 189.56 433.181 190.442C433.546 191.324 433.734 192.269 433.734 193.223H419.199ZM419.199 186.923V169.351H433.75L419.199 186.923Z" fill="#9C9DA1"/>
<g clip-path="url(#clip6_271_907)">
<g clip-path="url(#clip7_271_907)">
<path d="M706 180.601C706 160.718 689.882 144.601 670 144.601C650.118 144.601 634 160.718 634 180.601C634 200.483 650.118 216.601 670 216.601C689.882 216.601 706 200.483 706 180.601Z" fill="#8B62FF" fill-opacity="0.0905882"/>
<path d="M705.75 180.601C705.75 160.856 689.744 144.851 670 144.851C650.256 144.851 634.25 160.856 634.25 180.601C634.25 200.345 650.256 216.351 670 216.351C689.744 216.351 705.75 200.345 705.75 180.601Z" stroke="url(#paint7_linear_271_907)" stroke-opacity="0.2"/>
</g>
</g>
<path d="M664.07 164.851C661.132 164.851 658.75 167.195 658.75 170.088V196.326H666.321C667.79 196.326 668.981 195.153 668.981 193.707V183.795C666.467 182.779 664.697 180.345 664.697 177.504C664.697 173.749 667.789 170.705 671.603 170.705C674.489 170.705 676.962 172.448 677.994 174.923H678.471C679.94 174.923 681.131 173.75 681.131 172.304V164.851H664.07Z" fill="white"/>
<path d="M666.625 177.788C666.625 180.584 668.892 182.851 671.688 182.851C674.483 182.851 676.75 180.584 676.75 177.788C676.75 174.992 674.483 172.726 671.688 172.726C668.892 172.726 666.625 174.992 666.625 177.788Z" fill="white"/>
<g clip-path="url(#clip8_271_907)">
<g clip-path="url(#clip9_271_907)">
<path d="M778 180.601C778 165.137 765.464 152.601 750 152.601C734.536 152.601 722 165.137 722 180.601C722 196.065 734.536 208.601 750 208.601C765.464 208.601 778 196.065 778 180.601Z" fill="#8B62FF" fill-opacity="0.0905882"/>
<path d="M777.806 180.6C777.806 165.244 765.357 152.795 750.001 152.795C734.644 152.795 722.195 165.244 722.195 180.6C722.195 195.957 734.644 208.406 750.001 208.406C765.357 208.406 777.806 195.957 777.806 180.6Z" stroke="url(#paint8_linear_271_907)" stroke-opacity="0.2" stroke-width="0.777778"/>
</g>
</g>
<path d="M756.147 170.035C754.27 168.912 752.223 168.351 749.999 168.351C747.777 168.351 745.728 168.912 743.85 170.035C741.975 171.158 740.488 172.681 739.393 174.604C738.296 176.53 737.75 178.629 737.75 180.908C737.75 183.644 738.529 186.103 740.087 188.289C741.644 190.471 743.656 191.987 746.124 192.824C746.41 192.878 746.623 192.84 746.761 192.709C746.899 192.577 746.968 192.416 746.968 192.22L746.96 191.335C746.955 190.779 746.951 190.295 746.951 189.88L746.585 189.944C746.352 189.988 746.056 190.007 745.7 190.001C745.344 189.996 744.974 189.958 744.592 189.887C744.212 189.816 743.857 189.654 743.527 189.397C743.197 189.141 742.963 188.805 742.825 188.392L742.665 188.014C742.559 187.764 742.391 187.486 742.163 187.182C741.934 186.875 741.704 186.668 741.47 186.559L741.357 186.478C741.283 186.423 741.216 186.358 741.15 186.282C741.086 186.206 741.039 186.13 741.008 186.053C740.976 185.975 741.002 185.913 741.086 185.864C741.171 185.813 741.326 185.791 741.548 185.791L741.869 185.84C742.08 185.883 742.343 186.014 742.657 186.231C742.971 186.45 743.229 186.733 743.43 187.083C743.675 187.529 743.97 187.869 744.315 188.104C744.661 188.339 745.01 188.456 745.361 188.456C745.71 188.456 746.014 188.427 746.27 188.374C746.524 188.319 746.764 188.237 746.986 188.129C747.084 187.398 747.344 186.836 747.768 186.444C747.163 186.377 746.618 186.279 746.135 186.148C745.651 186.018 745.151 185.806 744.637 185.51C744.119 185.217 743.692 184.853 743.352 184.415C743.012 183.982 742.733 183.407 742.516 182.702C742.299 181.991 742.189 181.176 742.189 180.249C742.189 178.931 742.607 177.808 743.448 176.88C743.054 175.888 743.09 174.777 743.561 173.544C743.867 173.446 744.324 173.519 744.931 173.764C745.537 174.009 745.979 174.219 746.261 174.392C746.544 174.568 746.77 174.715 746.94 174.834C747.926 174.556 748.946 174.417 749.999 174.417C751.052 174.417 752.072 174.558 753.061 174.841L753.667 174.448C754.082 174.187 754.572 173.949 755.135 173.729C755.7 173.512 756.132 173.452 756.43 173.55C756.908 174.782 756.951 175.893 756.557 176.886C757.396 177.811 757.816 178.935 757.816 180.253C757.816 181.179 757.706 182 757.489 182.714C757.272 183.428 756.99 184.004 756.643 184.433C756.298 184.864 755.868 185.225 755.352 185.521C754.836 185.815 754.334 186.027 753.854 186.157C753.369 186.288 752.827 186.386 752.218 186.45C752.771 186.94 753.047 187.713 753.047 188.772V192.223C753.047 192.419 753.113 192.581 753.247 192.712C753.379 192.842 753.589 192.881 753.876 192.827C756.345 191.985 758.356 190.475 759.913 188.287C761.471 186.105 762.25 183.643 762.25 180.908C762.25 178.63 761.702 176.53 760.607 174.605C759.511 172.682 758.025 171.159 756.15 170.036L756.147 170.035Z" fill="#9C9DA1"/>
<g clip-path="url(#clip10_271_907)">
<g clip-path="url(#clip11_271_907)">
<path d="M834 180.601C834 169.555 825.046 160.601 814 160.601C802.954 160.601 794 169.555 794 180.601C794 191.646 802.954 200.601 814 200.601C825.046 200.601 834 191.646 834 180.601Z" fill="#8B62FF" fill-opacity="0.0905882"/>
<path d="M833.861 180.601C833.861 169.632 824.969 160.739 814 160.739C803.031 160.739 794.139 169.632 794.139 180.601C794.139 191.57 803.031 200.462 814 200.462C824.969 200.462 833.861 191.57 833.861 180.601Z" stroke="url(#paint9_linear_271_907)" stroke-opacity="0.2" stroke-width="0.555556"/>
</g>
</g>
<path d="M820.416 181.472C820.409 181.622 820.345 181.763 820.236 181.867C820.128 181.971 819.983 182.029 819.833 182.029C819.683 182.029 819.539 181.971 819.43 181.867C819.321 181.763 819.257 181.622 819.25 181.472V176.226C819.25 176.071 819.311 175.923 819.421 175.813C819.53 175.704 819.678 175.642 819.833 175.642C819.988 175.642 820.136 175.704 820.245 175.813C820.355 175.923 820.416 176.071 820.416 176.226V181.472ZM820.214 185.123C820.122 185.201 817.963 187.014 814 187.014C810.037 187.014 807.877 185.201 807.787 185.123C807.729 185.073 807.681 185.013 807.647 184.944C807.612 184.876 807.591 184.802 807.585 184.725C807.572 184.571 807.622 184.418 807.722 184.301C807.823 184.183 807.966 184.11 808.12 184.098C808.275 184.086 808.427 184.135 808.545 184.236C808.579 184.266 810.509 185.848 814 185.848C817.535 185.848 819.435 184.253 819.454 184.237C819.571 184.136 819.724 184.086 819.879 184.099C820.033 184.111 820.176 184.184 820.277 184.301C820.377 184.419 820.427 184.572 820.415 184.726C820.403 184.88 820.33 185.024 820.213 185.124L820.214 185.123ZM807.584 176.226C807.591 176.076 807.655 175.934 807.764 175.83C807.872 175.727 808.017 175.669 808.167 175.669C808.317 175.669 808.461 175.727 808.57 175.83C808.679 175.934 808.743 176.076 808.75 176.226V181.472C808.743 181.622 808.679 181.763 808.57 181.867C808.461 181.971 808.317 182.029 808.167 182.029C808.017 182.029 807.872 181.971 807.764 181.867C807.655 181.763 807.591 181.622 807.584 181.472V176.226ZM810.5 175.059C810.507 174.909 810.571 174.768 810.68 174.664C810.789 174.56 810.933 174.503 811.083 174.503C811.233 174.503 811.378 174.56 811.486 174.664C811.595 174.768 811.659 174.909 811.666 175.059V182.851C811.659 183.001 811.595 183.142 811.486 183.246C811.378 183.349 811.233 183.407 811.083 183.407C810.933 183.407 810.789 183.349 810.68 183.246C810.571 183.142 810.507 183.001 810.5 182.851V175.059ZM813.416 174.764C813.416 174.61 813.478 174.461 813.587 174.352C813.697 174.242 813.845 174.181 814 174.181C814.155 174.181 814.303 174.242 814.413 174.352C814.522 174.461 814.584 174.61 814.584 174.764V183.222C814.584 183.377 814.522 183.525 814.413 183.635C814.303 183.744 814.155 183.806 814 183.806C813.845 183.806 813.697 183.744 813.587 183.635C813.478 183.525 813.416 183.377 813.416 183.222V174.764ZM816.334 175.059C816.341 174.909 816.405 174.768 816.514 174.664C816.622 174.56 816.767 174.503 816.917 174.503C817.067 174.503 817.211 174.56 817.32 174.664C817.429 174.768 817.493 174.909 817.5 175.059V182.851C817.493 183.001 817.429 183.142 817.32 183.246C817.211 183.349 817.067 183.407 816.917 183.407C816.767 183.407 816.622 183.349 816.514 183.246C816.405 183.142 816.341 183.001 816.334 182.851V175.059ZM820.562 171.851H807.438C806.857 171.851 806.301 172.081 805.891 172.491C805.48 172.902 805.25 173.458 805.25 174.038V187.163C805.25 188.371 806.23 189.351 807.438 189.351H820.562C821.143 189.351 821.699 189.12 822.109 188.71C822.52 188.3 822.75 187.743 822.75 187.163V174.038C822.75 173.458 822.52 172.902 822.109 172.491C821.699 172.081 821.143 171.851 820.562 171.851Z" fill="#9C9DA1"/>
<g clip-path="url(#clip12_271_907)">
<mask id="mask0_271_907" style="mask-type:alpha" maskUnits="userSpaceOnUse" x="470" y="106" width="148" height="149">
<rect x="470" y="106.601" width="148" height="148" fill="black"/>
</mask>
<g mask="url(#mask0_271_907)">
<rect x="470" y="106.601" width="148" height="148" rx="74" fill="url(#paint10_linear_271_907)"/>
</g>
<rect x="470" y="106.601" width="148" height="148" fill="url(#paint11_linear_271_907)"/>
<path d="M542.323 158.973C549.459 158.787 556.41 160.378 561.783 165.31C565.275 168.675 567.49 173.396 567.729 178.268C567.844 185.511 567.844 185.511 566.86 188.55C566.795 188.756 566.795 188.756 566.728 188.966C565.07 194.005 561.382 197.91 556.723 200.321C552.719 202.317 548.527 202.965 544.098 202.968C543.94 202.968 543.781 202.968 543.618 202.968C541.323 202.965 539.137 202.897 536.91 202.291C536.769 202.253 536.629 202.216 536.484 202.176C534.684 201.68 532.963 201.054 531.294 200.209C531.107 200.118 530.92 200.026 530.727 199.932C529.228 199.164 527.975 198.204 526.719 197.086C526.571 196.956 526.423 196.826 526.271 196.691C522.766 193.398 520.682 188.423 520.442 183.653C520.326 176.612 520.326 176.612 521.311 173.56C521.378 173.352 521.378 173.352 521.446 173.14C523.1 168.211 526.498 164.32 531.01 161.822C534.539 160.122 538.404 159.093 542.323 158.973ZM540.412 161.451C539.095 163.002 538.62 164.893 538.067 166.807C537.185 169.844 535.82 172.228 533.051 173.922C531.819 174.558 530.458 174.917 529.14 175.334C527.066 176.016 525.264 176.908 524.015 178.765C523.407 180.037 523.405 181.444 523.846 182.773C524.174 183.55 524.62 184.043 525.263 184.595C525.409 184.732 525.555 184.869 525.705 185.011C527.009 185.919 528.467 186.439 529.973 186.913C533.049 187.883 535.354 189.29 537.019 192.115C537.543 193.138 537.852 194.216 538.171 195.317C539.206 199.011 539.206 199.011 541.811 201.628C543.157 202.251 544.372 202.353 545.792 201.906C547.542 201.134 548.457 199.827 549.184 198.101C549.459 197.3 549.667 196.486 549.883 195.668C550.771 192.35 552.23 189.908 555.192 188.066C556.474 187.373 557.863 186.992 559.251 186.567C561.31 185.902 563.097 185.041 564.189 183.095C564.725 181.947 564.755 180.734 564.444 179.513C563.81 177.88 562.638 176.913 561.088 176.163C560.341 175.842 559.585 175.572 558.812 175.32C555.333 174.183 552.722 172.876 550.973 169.459C550.481 168.347 550.12 167.204 549.769 166.042C549.055 163.685 548.367 161.472 546.061 160.236C543.955 159.446 542.012 159.909 540.412 161.451Z" fill="white"/>
<path d="M549.297 171.953C551.662 173.617 553.447 175.859 553.965 178.765C554.267 182.129 553.987 184.977 551.885 187.718C551.794 187.846 551.702 187.974 551.608 188.106C550.152 190 547.803 191.124 545.497 191.576C542.722 191.927 540.25 191.122 537.991 189.538C535.912 187.886 534.67 185.533 534.207 182.929C534.149 182.316 534.137 181.71 534.142 181.094C534.143 180.93 534.144 180.766 534.145 180.597C534.171 179.286 534.346 178.118 534.83 176.891C534.899 176.717 534.967 176.543 535.038 176.364C536.189 173.782 538.37 171.782 540.992 170.763C543.882 169.898 546.776 170.34 549.297 171.953ZM539.822 177.724C539.023 178.988 538.663 180.178 538.782 181.68C539.221 183.478 539.931 184.703 541.5 185.701C542.879 186.412 544.302 186.554 545.786 186.084C547.336 185.389 548.492 184.307 549.168 182.734C549.632 181.249 549.511 179.973 548.819 178.585C547.946 177.1 546.89 176.204 545.22 175.729C543.204 175.297 541.144 176.182 539.822 177.724Z" fill="white"/>
<path d="M544.058 208.446C544.291 208.448 544.291 208.448 544.529 208.45C545.74 208.485 546.696 208.699 547.723 209.37C547.916 209.491 548.109 209.611 548.308 209.735C549.165 210.616 549.637 211.568 549.699 212.806C549.634 213.996 549.247 214.915 548.411 215.768C547.04 216.895 545.394 217.413 543.624 217.341C541.979 217.136 540.421 216.604 539.345 215.291C538.663 214.237 538.444 213.085 538.642 211.847C539.004 210.629 539.819 209.853 540.86 209.162C541.963 208.593 542.843 208.43 544.058 208.446Z" fill="white"/>
<path d="M547.788 145.768C548.972 146.732 549.518 147.646 549.689 149.188C549.628 150.49 549.039 151.506 548.103 152.389C546.496 153.637 544.711 153.748 542.734 153.573C541.266 153.323 540.165 152.622 539.198 151.491C538.579 150.499 538.476 149.546 538.666 148.402C539.039 146.958 539.757 146.258 540.996 145.5C543.068 144.423 545.822 144.475 547.788 145.768Z" fill="white"/>
<path d="M531.503 206.039C532.98 207.005 533.862 208.333 534.415 209.995C534.559 211.462 534.524 212.761 533.583 213.951C532.682 214.88 531.76 215.069 530.489 215.122C528.667 215.048 527.376 214.498 526.122 213.17C525.018 211.772 524.486 210.47 524.559 208.673C524.724 207.545 525.167 206.761 525.966 205.961C527.844 204.797 529.598 205.112 531.503 206.039Z" fill="white"/>
<path d="M532.798 147.061C533.578 147.628 534.104 148.276 534.412 149.201C534.624 151.19 534.28 152.632 533.037 154.205C532.031 155.293 530.672 156.166 529.171 156.329C527.885 156.367 526.944 156.203 525.884 155.447C524.983 154.521 524.619 153.669 524.559 152.389C524.591 150.825 525.171 149.26 526.3 148.16C528.261 146.663 530.481 145.742 532.798 147.061Z" fill="white"/>
<path d="M561.947 205.779C562.873 206.574 563.468 207.25 563.59 208.493C563.654 210.562 563.215 211.969 561.817 213.509C560.335 214.853 558.896 215.134 556.916 215.073C555.798 214.937 555.294 214.456 554.538 213.678C553.779 212.512 553.678 211.444 553.854 210.097C554.213 208.435 555.226 207.035 556.63 206.092C558.317 205.113 560.17 204.857 561.947 205.779Z" fill="white"/>
<path d="M517.661 161.511C518.605 162.202 519.363 163.042 519.65 164.191C519.846 165.908 519.503 167.213 518.483 168.605C517.374 169.936 516.153 170.919 514.384 171.115C513.116 171.174 512.165 170.972 511.123 170.229C510.222 169.303 509.857 168.451 509.797 167.171C509.83 165.607 510.409 164.042 511.539 162.942C513.442 161.513 515.278 160.73 517.661 161.511Z" fill="white"/>
<path d="M512.199 175.642C513.613 176.649 514.56 177.871 514.864 179.598C515.078 181.575 514.755 183.29 513.538 184.894C512.586 185.824 511.839 186.093 510.522 186.156C509.297 186.12 508.475 185.867 507.585 185.011C506.42 183.585 506.025 182.027 506.063 180.205C506.207 178.873 506.623 177.713 507.481 176.683C507.652 176.546 507.824 176.408 508.001 176.267C508.146 176.146 508.292 176.026 508.443 175.902C509.536 175.173 510.989 175.262 512.199 175.642Z" fill="white"/>
<path d="M559.946 146.833C561.537 147.642 562.609 148.755 563.378 150.372C563.668 151.68 563.718 153.009 563.3 154.289C562.608 155.236 561.771 155.986 560.622 156.28C558.972 156.494 557.584 156.05 556.206 155.14C554.906 154.106 554.09 152.707 553.759 151.075C553.67 149.916 553.813 148.964 554.383 147.952C555.812 146.324 557.991 146.029 559.946 146.833Z" fill="white"/>
<path d="M576.714 190.997C577.649 191.8 578.258 192.531 578.508 193.756C578.56 195.62 578.095 197.01 576.833 198.384C575.514 199.636 574.397 200.218 572.58 200.301C571.205 200.259 570.26 199.853 569.278 198.896C568.466 197.551 568.405 196.3 568.732 194.797C569.408 192.957 570.567 191.778 572.268 190.841C573.718 190.221 575.319 190.273 576.714 190.997Z" fill="white"/>
<path d="M517.214 191.571C518.559 192.666 519.495 194.111 519.695 195.854C519.736 197.069 519.524 197.962 518.813 198.96C518.109 199.702 517.441 200.164 516.401 200.259C514.526 200.305 513.051 199.955 511.62 198.674C510.379 197.246 509.789 195.808 509.813 193.933C509.915 192.871 510.269 192.077 511.052 191.347C512.987 189.885 515.254 190.29 517.214 191.571Z" fill="white"/>
<path d="M578.721 175.577C580.14 176.329 580.883 177.502 581.417 178.974C581.875 180.598 581.69 182.236 581.001 183.762C580.325 184.75 579.585 185.516 578.506 186.052C577.315 186.25 576.149 186.236 575.087 185.623C573.863 184.719 573.156 183.599 572.89 182.097C572.741 180.349 572.833 178.849 573.722 177.308C575.044 175.753 576.669 174.887 578.721 175.577Z" fill="white"/>
<path d="M575.097 161.836C576.671 162.705 577.785 163.904 578.298 165.649C578.457 166.916 578.554 168.255 577.96 169.423C577.203 170.34 576.357 170.977 575.151 171.112C573.268 171.17 571.688 170.631 570.298 169.337C568.952 167.832 568.654 166.489 568.673 164.496C568.752 163.505 568.932 163.082 569.562 162.318C571.3 160.969 573.124 160.946 575.097 161.836Z" fill="white"/>
<path d="M516.813 204.316C518.708 205.107 519.835 206.253 520.687 208.121C520.921 208.988 520.965 209.708 520.752 210.581C520.292 211.348 519.877 211.792 519.023 212.077C517.517 212.231 516.203 211.8 515.014 210.877C513.727 209.658 512.961 208.528 512.9 206.729C512.935 205.858 513.012 205.25 513.615 204.582C514.635 203.975 515.689 203.974 516.813 204.316Z" fill="white"/>
<path d="M519.441 149.617C520.08 149.994 520.362 150.213 520.689 150.867C520.889 152.475 520.728 153.644 519.81 154.991C518.745 156.305 517.5 157.233 515.801 157.503C514.911 157.576 514.365 157.422 513.617 156.904C512.92 156.23 512.816 155.569 512.785 154.614C513.078 153.031 513.867 151.687 515.14 150.701C516.619 149.701 517.632 149.436 519.441 149.617Z" fill="white"/>
<path d="M574.32 204.374C574.97 204.986 575.24 205.575 575.386 206.456C575.352 207.995 574.744 209.278 573.722 210.411C572.403 211.497 571.098 212.23 569.355 212.077C568.527 211.748 568.189 211.575 567.691 210.828C567.35 209.304 567.588 208.196 568.361 206.843C569.713 204.865 571.927 203.54 574.32 204.374Z" fill="white"/>
<path d="M571.228 149.617C572.673 150.039 573.796 151.073 574.616 152.313C575.144 153.281 575.37 154.135 575.387 155.239C575.084 156.215 574.809 156.794 573.932 157.321C572.668 157.539 571.474 157.413 570.363 156.763C568.868 155.689 567.833 154.355 567.497 152.519C567.482 151.579 567.646 151.056 568.108 150.242C569.038 149.37 570.02 149.47 571.228 149.617Z" fill="white"/>
<path d="M587.764 177.282C588.735 177.595 588.971 177.922 589.532 178.766C589.934 179.982 589.955 181.514 589.48 182.708C588.875 183.768 588.875 183.768 588.284 184.179C587.569 184.296 587.569 184.296 586.828 184.179C585.884 183.485 585.581 182.819 585.373 181.68C585.244 180.404 585.362 179.273 585.996 178.141C586.596 177.457 586.852 177.315 587.764 177.282Z" fill="white"/>
<path d="M501.551 177.516C502.509 178.397 502.747 179.452 502.864 180.717C502.763 181.887 502.476 182.904 501.811 183.879C501.122 184.319 500.687 184.305 499.887 184.178C499.03 183.53 498.644 182.935 498.431 181.888C498.281 180.382 498.376 179.189 499.263 177.932C499.963 177.135 500.567 177.234 501.551 177.516Z" fill="white"/>
<path d="M546.688 137.75C547.208 138.114 547.208 138.114 547.52 138.582C547.637 139.298 547.637 139.298 547.52 140.04C546.827 140.985 546.161 141.288 545.024 141.497C543.748 141.626 542.619 141.508 541.488 140.873C540.955 140.404 540.955 140.404 540.656 139.832C540.656 139.016 540.733 138.554 541.215 137.893C542.817 136.723 544.986 136.839 546.688 137.75Z" fill="white"/>
<path d="M546.686 221.237C547.325 221.701 547.49 221.901 547.622 222.682C547.493 223.476 547.26 223.802 546.686 224.36C545.324 225.118 543.847 225.055 542.376 224.722C541.742 224.516 541.324 224.213 540.863 223.736C540.559 223.127 540.562 222.745 540.655 222.07C542.303 220.341 544.604 220.141 546.686 221.237Z" fill="white"/>
<path d="M531.986 219.12C532.758 219.479 533.408 219.82 533.792 220.613C533.883 221.147 533.883 221.147 533.792 221.654C533.146 222.284 532.651 222.369 531.764 222.37C530.421 222.337 529.477 222.005 528.446 221.153C528.003 220.608 528.138 220.037 528.176 219.364C529.431 218.538 530.612 218.628 531.986 219.12Z" fill="white"/>
<path d="M556.778 139.121C557.987 139.327 559.021 139.721 559.932 140.549C560.205 141.082 560.205 141.082 560.205 141.629C559.938 142.264 559.792 142.45 559.165 142.748C557.906 142.929 556.745 142.736 555.629 142.123C555.08 141.667 554.704 141.286 554.355 140.666C554.381 140.249 554.381 140.249 554.771 139.677C555.52 139.137 555.88 139.066 556.778 139.121Z" fill="white"/>
<path d="M505.503 164.816C506.017 165.381 506.118 165.778 506.205 166.533C506.069 167.895 505.725 169.291 504.672 170.229C503.892 170.398 503.892 170.398 503.216 170.437C502.493 169.61 502.476 168.999 502.503 167.931C502.648 166.924 503.054 166.065 503.632 165.232C504.354 164.75 504.654 164.692 505.503 164.816Z" fill="white"/>
<path d="M533.387 139.52C533.52 139.623 533.653 139.726 533.79 139.832C533.766 141.089 533.766 141.089 533.296 141.604C532.068 142.522 530.747 142.889 529.215 142.747C528.608 142.483 528.28 142.319 527.967 141.732C527.967 141.06 528.172 140.772 528.591 140.249C529.984 139.241 531.785 138.734 533.387 139.52Z" fill="white"/>
<path d="M585.162 191.257C585.813 192.235 585.695 193.236 585.578 194.38C585.255 195.466 584.71 196.315 583.706 196.879C582.994 196.846 582.757 196.761 582.25 196.254C581.931 194.878 582.099 193.799 582.666 192.507C583.351 191.442 583.879 190.872 585.162 191.257Z" fill="white"/>
<path d="M503.905 191.062C504.849 191.391 505.294 192.074 505.715 192.94C506.139 194.042 506.283 195.109 505.92 196.254C505.635 196.62 505.635 196.62 505.296 196.878C504.514 196.878 504.165 196.78 503.593 196.241C502.782 194.925 502.367 193.649 502.592 192.09C502.889 191.357 503.067 191.039 503.905 191.062Z" fill="white"/>
<path d="M583.343 164.725C584.123 164.816 584.123 164.816 584.708 165.362C585.608 166.64 585.794 168.069 585.579 169.604C585.263 170.091 585.263 170.091 584.955 170.437C584.108 170.417 583.616 170.238 583.031 169.643C582.251 168.649 582.089 167.512 582.043 166.273C582.354 164.858 582.354 164.858 583.343 164.725Z" fill="white"/>
<path d="M558.253 218.882C558.604 218.876 558.604 218.876 558.963 218.871C559.579 218.947 559.579 218.947 559.971 219.226C560.202 219.571 560.202 219.571 560.241 220.157C559.882 221.123 559.198 221.551 558.331 222.07C557.673 222.289 557.163 222.327 556.472 222.343C556.255 222.351 556.039 222.359 555.816 222.367C555.076 222.258 554.844 222.014 554.379 221.445C554.637 220.41 554.941 219.946 555.835 219.363C556.659 218.964 557.34 218.885 558.253 218.882Z" fill="white"/>
</g>
<defs>
<radialGradient id="paint0_radial_271_907" cx="0" cy="0" r="1" gradientUnits="userSpaceOnUse" gradientTransform="translate(544 180) scale(544 179)">
<stop stop-color="#3E2476" stop-opacity="0.1"/>
<stop offset="1" stop-color="white" stop-opacity="0"/>
</radialGradient>
<linearGradient id="paint1_linear_271_907" x1="439" y1="180.601" x2="649" y2="180.601" gradientUnits="userSpaceOnUse">
<stop stop-color="#150B30"/>
<stop offset="1" stop-color="#5B39B8"/>
</linearGradient>
<linearGradient id="paint2_linear_271_907" x1="404" y1="180.601" x2="684" y2="180.601" gradientUnits="userSpaceOnUse">
<stop stop-color="#150B30"/>
<stop offset="1" stop-color="#5B39B8"/>
</linearGradient>
<linearGradient id="paint3_linear_271_907" x1="364" y1="180.601" x2="724" y2="180.601" gradientUnits="userSpaceOnUse">
<stop stop-color="#150B30"/>
<stop offset="1" stop-color="#5B39B8"/>
</linearGradient>
<linearGradient id="paint4_linear_271_907" x1="274" y1="160.601" x2="274" y2="210.601" gradientUnits="userSpaceOnUse">
<stop stop-color="white"/>
<stop offset="1" stop-color="white" stop-opacity="0"/>
</linearGradient>
<linearGradient id="paint5_linear_271_907" x1="338.001" y1="152.6" x2="338.001" y2="222.6" gradientUnits="userSpaceOnUse">
<stop stop-color="white"/>
<stop offset="1" stop-color="white" stop-opacity="0"/>
</linearGradient>
<linearGradient id="paint6_linear_271_907" x1="418" y1="144.601" x2="418" y2="234.601" gradientUnits="userSpaceOnUse">
<stop stop-color="white"/>
<stop offset="1" stop-color="white" stop-opacity="0"/>
</linearGradient>
<linearGradient id="paint7_linear_271_907" x1="670" y1="144.601" x2="670" y2="234.601" gradientUnits="userSpaceOnUse">
<stop stop-color="white"/>
<stop offset="1" stop-color="white" stop-opacity="0"/>
</linearGradient>
<linearGradient id="paint8_linear_271_907" x1="750.001" y1="152.6" x2="750.001" y2="222.6" gradientUnits="userSpaceOnUse">
<stop stop-color="white"/>
<stop offset="1" stop-color="white" stop-opacity="0"/>
</linearGradient>
<linearGradient id="paint9_linear_271_907" x1="814" y1="160.601" x2="814" y2="210.601" gradientUnits="userSpaceOnUse">
<stop stop-color="white"/>
<stop offset="1" stop-color="white" stop-opacity="0"/>
</linearGradient>
<linearGradient id="paint10_linear_271_907" x1="544" y1="106.601" x2="544" y2="254.601" gradientUnits="userSpaceOnUse">
<stop stop-color="white" stop-opacity="0.3"/>
<stop offset="1" stop-color="white" stop-opacity="0"/>
</linearGradient>
<linearGradient id="paint11_linear_271_907" x1="544" y1="106.601" x2="544" y2="254.601" gradientUnits="userSpaceOnUse">
<stop stop-color="#6C38FF" stop-opacity="0.3"/>
<stop offset="1" stop-color="#8B62FF" stop-opacity="0.3"/>
</linearGradient>
<clipPath id="clip0_271_907">
<rect width="40" height="40" fill="white" transform="translate(254 160.601)"/>
</clipPath>
<clipPath id="clip1_271_907">
<rect width="40" height="40" fill="white" transform="translate(254 160.601)"/>
</clipPath>
<clipPath id="clip2_271_907">
<rect width="56" height="56" fill="white" transform="translate(310 152.601)"/>
</clipPath>
<clipPath id="clip3_271_907">
<rect width="56" height="56" fill="white" transform="translate(310 152.601)"/>
</clipPath>
<clipPath id="clip4_271_907">
<rect width="72" height="72" fill="white" transform="translate(382 144.601)"/>
</clipPath>
<clipPath id="clip5_271_907">
<rect width="72" height="72" fill="white" transform="translate(382 144.601)"/>
</clipPath>
<clipPath id="clip6_271_907">
<rect width="72" height="72" fill="white" transform="translate(634 144.601)"/>
</clipPath>
<clipPath id="clip7_271_907">
<rect width="72" height="72" fill="white" transform="translate(634 144.601)"/>
</clipPath>
<clipPath id="clip8_271_907">
<rect width="56" height="56" fill="white" transform="translate(722 152.601)"/>
</clipPath>
<clipPath id="clip9_271_907">
<rect width="56" height="56" fill="white" transform="translate(722 152.601)"/>
</clipPath>
<clipPath id="clip10_271_907">
<rect width="40" height="40" fill="white" transform="translate(794 160.601)"/>
</clipPath>
<clipPath id="clip11_271_907">
<rect width="40" height="40" fill="white" transform="translate(794 160.601)"/>
</clipPath>
<clipPath id="clip12_271_907">
<rect x="470" y="106.601" width="148" height="148" rx="74" fill="white"/>
</clipPath>
</defs>
</svg>
